<?xml version="1.0" encoding="UTF-8"?>
<svg version="1.1" xmlns="http://www.w3.org/2000/svg" width="808" height="182">
<path d="M0 0 C5.00067061 4.79106166 8.47022831 10.46177148 10.95703125 16.875 C11.75471924 16.78935791 12.55240723 16.70371582 13.37426758 16.61547852 C27.92674105 15.0746039 42.45603892 13.6679993 57.08203125 13.0625 C58.76776245 12.98334351 58.76776245 12.98334351 60.48754883 12.90258789 C61.53193115 12.86641357 62.57631348 12.83023926 63.65234375 12.79296875 C65.01383545 12.74305786 65.01383545 12.74305786 66.40283203 12.69213867 C69.26472222 12.89702834 71.33337139 13.75279931 73.95703125 14.875 C76.66590066 15.04298262 76.66590066 15.04298262 78.95703125 14.875 C78.95703125 16.195 78.95703125 17.515 78.95703125 18.875 C77.5168457 20.18798828 77.5168457 20.18798828 75.5078125 21.3203125 C74.77385254 21.7421582 74.03989258 22.16400391 73.28369141 22.59863281 C72.13199463 23.23043457 72.13199463 23.23043457 70.95703125 23.875 C70.25239746 24.2781543 69.54776367 24.68130859 68.82177734 25.09667969 C51.00778224 35.17945797 32.85337758 41.32546664 12.95703125 45.875 C14.2803085 50.05227549 14.2803085 50.05227549 16.14453125 54 C16.95703125 55.875 16.95703125 55.875 16.76953125 58 C15.95703125 59.875 15.95703125 59.875 12.95703125 61.875 C11.1150363 66.96757428 10.37728022 72.16936408 9.6171875 77.51953125 C8.95703125 79.875 8.95703125 79.875 5.95703125 81.875 C3.17687716 81.85782088 0.52922612 81.74102139 -2.23046875 81.5 C-3.35485352 81.41492188 -3.35485352 81.41492188 -4.50195312 81.328125 C-6.34973434 81.18689331 -8.19648075 81.03223833 -10.04296875 80.875 C-10.33945313 81.64457031 -10.6359375 82.41414063 -10.94140625 83.20703125 C-12.04296875 85.875 -12.04296875 85.875 -13.66796875 88.5625 C-15.21332721 90.71311106 -15.21332721 90.71311106 -15.04296875 92.875 C-13.92921875 93.6175 -13.92921875 93.6175 -12.79296875 94.375 C-9.92824461 96.97929468 -9.32461448 98.27746896 -8.04296875 101.8125 C-5.31931317 109.20217907 -0.77744058 112.30969138 5.95703125 115.875 C5.93640625 114.84375 5.91578125 113.8125 5.89453125 112.75 C6.44215501 109.11644235 7.86851946 107.63158654 10.76953125 105.4375 C16.24138596 102.14384749 21.72523592 101.9018668 27.95703125 102.875 C28.94703125 103.535 29.93703125 104.195 30.95703125 104.875 C31.96690135 110.05058428 29.84524355 113.47477501 27.34375 117.82421875 C25.95703125 119.875 25.95703125 119.875 22.95703125 122.875 C26.58703125 122.875 30.21703125 122.875 33.95703125 122.875 C34.30765625 121.34875 34.65828125 119.8225 35.01953125 118.25 C36.70213968 112.71695741 38.9901235 109.80124022 43.95703125 106.875 C50.00267058 103.87424471 55.40278382 103.25180927 61.95703125 104.875 C65.45703125 106.25 65.45703125 106.25 67.95703125 107.875 C68.28703125 108.865 68.61703125 109.855 68.95703125 110.875 C67.36761719 111.70644531 67.36761719 111.70644531 65.74609375 112.5546875 C64.3579713 113.28626555 62.96995602 114.01804698 61.58203125 114.75 C60.53402344 115.29720703 60.53402344 115.29720703 59.46484375 115.85546875 C55.43718329 117.97815095 55.43718329 117.97815095 51.95703125 120.875 C54.24519204 120.33564781 56.45503557 119.71208144 58.69140625 118.98046875 C67.84109362 116.19526599 67.84109362 116.19526599 72.33203125 118.25 C76.73227106 121.05182284 81.03731669 124.74431599 82.546875 129.8828125 C82.83203125 131.8125 82.83203125 131.8125 82.95703125 134.875 C73.51138055 135.32479289 66.65117116 133.55400803 58.95703125 127.875 C54.49621943 124.90112545 50.19057199 125.48733032 44.95703125 125.875 C41.44873411 126.73215849 41.44873411 126.73215849 38.95703125 127.875 C39.43914062 128.39449219 39.92125 128.91398438 40.41796875 129.44921875 C46.36272979 136.01272023 48.38605994 140.00840708 47.95703125 148.875 C47.62703125 149.865 47.29703125 150.855 46.95703125 151.875 C41.18079472 151.48698918 37.67427415 149.76668017 33.26953125 146.1875 C32.71458984 145.76533203 32.15964844 145.34316406 31.58789062 144.90820312 C27.3366574 141.55675529 23.42002483 137.90297801 22.56640625 132.3203125 C22.69661458 130.171875 22.82682292 128.0234375 22.95703125 125.875 C19.32703125 126.205 15.69703125 126.535 11.95703125 126.875 C12.88515625 128.256875 13.81328125 129.63875 14.76953125 131.0625 C15.31351562 131.88621094 15.8575 132.70992187 16.41796875 133.55859375 C17.55143149 135.26454148 18.71488119 136.95065798 19.89453125 138.625 C21.22886125 141.45064 20.87796672 142.94475078 19.95703125 145.875 C14.72731251 146.18878312 11.37129406 145.78440049 6.95703125 142.875 C3.55671636 138.55921571 1.90728946 132.97339075 -0.04296875 127.875 C-4.74781441 129.72003751 -8.12982038 131.61404302 -12.04296875 134.875 C-15.66227573 136.08143566 -18.2352788 136.19768559 -22.04296875 135.875 C-25.1543493 134.13262689 -27.58922575 132.32960236 -30.10546875 129.80859375 C-34.28153383 127.05972113 -38.00791376 126.94270784 -42.91796875 126.6875 C-43.79066406 126.59919922 -44.66335937 126.51089844 -45.5625 126.41992188 C-49.36313937 126.19988486 -51.96127896 126.08695913 -55.11230469 128.38256836 C-56.96388198 130.22011107 -56.96388198 130.22011107 -58.52587891 132.16113281 C-61.04576167 135.00786229 -63.41480552 135.77359331 -67.04296875 136.875 C-70.98046875 137.0625 -70.98046875 137.0625 -74.04296875 136.875 C-74.20999331 132.53236138 -74.17296872 129.66539366 -72.04296875 125.875 C-78.10780851 125.01008299 -83.4166474 124.35215418 -89.29296875 126.375 C-94.17591655 128.05473404 -97.0141213 128.27648208 -102.04296875 126.875 C-106.15903391 124.37451071 -108.58518146 121.94980495 -110.48046875 117.5 C-110.66609375 116.63375 -110.85171875 115.7675 -111.04296875 114.875 C-104.30742863 112.03898311 -97.36535265 111.8149513 -90.48046875 114.25 C-87.04296875 115.875 -87.04296875 115.875 -86.04296875 117.875 C-85.90098028 110.8196097 -85.90098028 110.8196097 -86.60546875 103.8125 C-86.74984375 102.843125 -86.89421875 101.87375 -87.04296875 100.875 C-86.04296875 99.875 -86.04296875 99.875 -83.79296875 99.4375 C-80.34336973 99.98629984 -79.09999042 101.48225469 -77.046875 104.23046875 C-74.62946532 108.19050562 -74.93809646 112.3654914 -75.04296875 116.875 C-72.06715522 114.10441499 -70.06389183 111.38964884 -68.04296875 107.875 C-67.50027344 107.25882812 -66.95757812 106.64265625 -66.3984375 106.0078125 C-64.80939616 103.98060305 -64.80939616 103.98060305 -65.22265625 101.6484375 C-65.45210937 100.85695313 -65.6815625 100.06546875 -65.91796875 99.25 C-67.50188648 92.63078823 -67.62308371 84.89610243 -64.04296875 78.875 C-62.87050664 77.63808856 -61.67253432 76.42511079 -60.45703125 75.23046875 C-59.81975098 74.60164795 -59.1824707 73.97282715 -58.52587891 73.32495117 C-58.03651855 72.84646729 -57.5471582 72.3679834 -57.04296875 71.875 C-57.80327393 72.13716309 -58.5635791 72.39932617 -59.34692383 72.66943359 C-62.84702767 73.8711244 -66.35116464 75.0606162 -69.85546875 76.25 C-71.05107422 76.6625 -72.24667969 77.075 -73.47851562 77.5 C-83.19807803 80.78399384 -92.43241948 83.20392177 -102.73046875 83 C-103.93058594 82.98195313 -105.13070312 82.96390625 -106.3671875 82.9453125 C-107.25019531 82.92210938 -108.13320312 82.89890625 -109.04296875 82.875 C-109.04296875 81.555 -109.04296875 80.235 -109.04296875 78.875 C-107.1574809 77.11419764 -105.37878782 75.67310443 -103.29296875 74.1875 C-102.7009668 73.75034668 -102.10896484 73.31319336 -101.49902344 72.86279297 C-100.27381873 71.95875525 -99.04493113 71.05968856 -97.8125 70.16552734 C-95.27635415 68.31590442 -92.78902286 66.40324126 -90.29296875 64.5 C-58.66730386 40.875 -58.66730386 40.875 -54.04296875 40.875 C-54.04296875 40.215 -54.04296875 39.555 -54.04296875 38.875 C-54.70296875 38.875 -55.36296875 38.875 -56.04296875 38.875 C-59.20826214 32.54441321 -57.68035161 21.54797602 -56.5 14.74609375 C-53.68756259 6.52004442 -46.58368534 -0.48680187 -39.04296875 -4.625 C-25.75788779 -10.24253924 -11.38452055 -8.98187026 0 0 Z M-21.04296875 21.875 C-24.66570017 25.73924685 -26.82768016 30.12626967 -29.04296875 34.875 C-26.07296875 35.37 -26.07296875 35.37 -23.04296875 35.875 C-23.37296875 34.555 -23.70296875 33.235 -24.04296875 31.875 C-23.25921875 31.7925 -22.47546875 31.71 -21.66796875 31.625 C-16.92517736 30.64373282 -12.27413236 29.27215205 -8.04296875 26.875 C-6.72095125 24.84428831 -6.72095125 24.84428831 -6.04296875 22.875 C-12.83279382 23.24535409 -17.31181766 25.27976401 -23.04296875 28.875 C-22.56859375 28.09125 -22.09421875 27.3075 -21.60546875 26.5 C-20.70398852 24.98551322 -19.8311739 23.4514103 -19.04296875 21.875 C-19.70296875 21.875 -20.36296875 21.875 -21.04296875 21.875 Z M-32.04296875 23.875 C-35.42761471 28.4904263 -36.13204381 33.35586654 -37.04296875 38.875 C-35.59032837 39.7388129 -34.13065245 40.59080454 -32.66796875 41.4375 C-31.85585937 41.91316406 -31.04375 42.38882813 -30.20703125 42.87890625 C-29.49289063 43.20761719 -28.77875 43.53632812 -28.04296875 43.875 C-27.38296875 43.545 -26.72296875 43.215 -26.04296875 42.875 C-28.73138734 40.62254119 -30.6893875 38.99286042 -34.04296875 37.875 C-33.28786671 32.33758503 -33.28786671 32.33758503 -31.91796875 29.75 C-30.81712781 27.39105512 -31.18584179 26.27495548 -32.04296875 23.875 Z M-48.16796875 34.375 C-48.89242187 35.0246875 -49.616875 35.674375 -50.36328125 36.34375 C-50.91757813 36.8490625 -51.471875 37.354375 -52.04296875 37.875 C-48.69877723 37.875 -47.97456554 37.39980606 -45.35546875 35.5 C-44.42154297 34.83871094 -44.42154297 34.83871094 -43.46875 34.1640625 C-42.99824219 33.73867188 -42.52773437 33.31328125 -42.04296875 32.875 C-42.04296875 32.215 -42.04296875 31.555 -42.04296875 30.875 C-44.98651232 30.875 -46.01875712 32.43377659 -48.16796875 34.375 Z M-22.04296875 34.875 C-22.04296875 35.205 -22.04296875 35.535 -22.04296875 35.875 C-19.07296875 35.875 -16.10296875 35.875 -13.04296875 35.875 C-13.04296875 35.545 -13.04296875 35.215 -13.04296875 34.875 C-16.01296875 34.875 -18.98296875 34.875 -22.04296875 34.875 Z M-46.04296875 39.875 C-44.80100805 43.31427579 -43.48556591 46.12707819 -41.04296875 48.875 C-40.38296875 48.875 -39.72296875 48.875 -39.04296875 48.875 C-40.39318701 44.45610387 -42.30412543 42.53154657 -46.04296875 39.875 Z M1.95703125 42.875 C2.28703125 44.195 2.61703125 45.515 2.95703125 46.875 C4.60703125 46.875 6.25703125 46.875 7.95703125 46.875 C8.28703125 44.565 8.61703125 42.255 8.95703125 39.875 C5.43986822 39.875 4.58581377 40.69945585 1.95703125 42.875 Z M-3.8671875 44.65234375 C-4.48207031 45.03519531 -5.09695312 45.41804688 -5.73046875 45.8125 C-6.82359375 46.493125 -7.91671875 47.17375 -9.04296875 47.875 C-9.04296875 48.205 -9.04296875 48.535 -9.04296875 48.875 C-6.21080075 49.20948259 -6.21080075 49.20948259 -3.04296875 48.875 C-0.66577182 46.99998069 -0.66577182 46.99998069 0.95703125 44.875 C-1.871638 43.56387926 -1.871638 43.56387926 -3.8671875 44.65234375 Z M-17.16796875 51.875 C-17.89242187 52.24625 -18.616875 52.6175 -19.36328125 53 C-20.19472656 53.433125 -20.19472656 53.433125 -21.04296875 53.875 C-20.38296875 54.535 -19.72296875 55.195 -19.04296875 55.875 C-18.41796875 58.5 -18.41796875 58.5 -18.04296875 60.875 C-17.71296875 60.875 -17.38296875 60.875 -17.04296875 60.875 C-16.85734375 59.1734375 -16.85734375 59.1734375 -16.66796875 57.4375 C-16.46171875 56.261875 -16.25546875 55.08625 -16.04296875 53.875 C-15.38296875 53.545 -14.72296875 53.215 -14.04296875 52.875 C-14.04296875 54.855 -14.04296875 56.835 -14.04296875 58.875 C-11.28073597 56.11276722 -11.46440584 53.66793383 -11.04296875 49.875 C-13.56772337 49.875 -14.93199809 50.72095063 -17.16796875 51.875 Z M-5.04296875 49.875 C-4.04296875 51.875 -4.04296875 51.875 -4.04296875 51.875 Z M-0.09765625 52.9296875 C-0.69835937 53.86039063 -1.2990625 54.79109375 -1.91796875 55.75 C-5.20992462 60.65939083 -8.70385448 65.233328 -12.4765625 69.78125 C-14.22087793 71.88357125 -14.22087793 71.88357125 -15.04296875 74.875 C-8.2038499 77.42827104 -2.38110209 79.4394718 4.95703125 78.875 C6.52638719 75.73628812 6.30904228 73.33644178 5.95703125 69.875 C3.60284749 66.93526719 3.60284749 66.93526719 0.95703125 64.875 C2.60703125 64.215 4.25703125 63.555 5.95703125 62.875 C5.95703125 60.895 5.95703125 58.915 5.95703125 56.875 C8.38500436 56.875 10.5861013 57.37585685 12.95703125 57.875 C12.76874353 55.43019921 12.76874353 55.43019921 11.95703125 52.875 C8.18668816 49.94251093 3.343004 49.48902725 -0.09765625 52.9296875 Z M-27.04296875 56.875 C-26.05296875 57.205 -25.06296875 57.535 -24.04296875 57.875 C-23.71296875 59.855 -23.38296875 61.835 -23.04296875 63.875 C-20.75283222 60.4397952 -20.86453902 58.889669 -21.04296875 54.875 C-23.12725084 54.875 -25.14114839 56.09476601 -27.04296875 56.875 Z M-29.04296875 57.875 C-29.70296875 58.535 -30.36296875 59.195 -31.04296875 59.875 C-29.55796875 60.865 -29.55796875 60.865 -28.04296875 61.875 C-27.71296875 60.555 -27.38296875 59.235 -27.04296875 57.875 C-27.70296875 57.875 -28.36296875 57.875 -29.04296875 57.875 Z M-33.04296875 59.875 C-33.70296875 60.535 -34.36296875 61.195 -35.04296875 61.875 C-34.38296875 61.875 -33.72296875 61.875 -33.04296875 61.875 C-34.78556556 71.46953303 -34.78556556 71.46953303 -38.04296875 74.875 C-35.02722604 73.83508872 -34.06305824 72.90585171 -32.29296875 70.1875 C-30.91076526 66.52466075 -30.81001738 63.75752283 -31.04296875 59.875 C-31.70296875 59.875 -32.36296875 59.875 -33.04296875 59.875 Z M-19.04296875 60.875 C-18.04296875 63.875 -18.04296875 63.875 -18.04296875 63.875 Z M-37.04296875 61.875 C-37.70296875 62.535 -38.36296875 63.195 -39.04296875 63.875 C-38.38296875 63.875 -37.72296875 63.875 -37.04296875 63.875 C-37.04296875 65.525 -37.04296875 67.175 -37.04296875 68.875 C-34.67316862 65.92122502 -34.67316862 65.92122502 -35.04296875 61.875 C-35.70296875 61.875 -36.36296875 61.875 -37.04296875 61.875 Z M-45.04296875 66.875 C-44.38296875 66.875 -43.72296875 66.875 -43.04296875 66.875 C-44.03296875 68.855 -45.02296875 70.835 -46.04296875 72.875 C-43.64807332 72.13175659 -42.33519259 71.40442646 -41.109375 69.18359375 C-40.37076952 67.43426499 -39.7024719 65.65565851 -39.04296875 63.875 C-41.80520153 63.875 -42.93578329 65.18925163 -45.04296875 66.875 Z M-55.04296875 69.875 C-54.05296875 70.205 -53.06296875 70.535 -52.04296875 70.875 C-52.04296875 71.535 -52.04296875 72.195 -52.04296875 72.875 C-48.67576488 71.48167426 -47.05701635 69.8960714 -45.04296875 66.875 C-48.90992553 66.875 -51.55181395 68.29409971 -55.04296875 69.875 Z M-57.16796875 75.375 C-58.11671875 76.2 -59.06546875 77.025 -60.04296875 77.875 C-56.79731017 78.21555197 -56.79731017 78.21555197 -54.35546875 75.375 C-53.59234375 74.55 -52.82921875 73.725 -52.04296875 72.875 C-54.63223206 72.875 -55.24348536 73.70153618 -57.16796875 75.375 Z M-48.04296875 72.875 C-48.37296875 73.535 -48.70296875 74.195 -49.04296875 74.875 C-48.05296875 74.545 -47.06296875 74.215 -46.04296875 73.875 C-46.70296875 73.545 -47.36296875 73.215 -48.04296875 72.875 Z M-34.04296875 75.875 C-34.37296875 76.535 -34.70296875 77.195 -35.04296875 77.875 C-34.38296875 77.875 -33.72296875 77.875 -33.04296875 77.875 C-33.37296875 77.215 -33.70296875 76.555 -34.04296875 75.875 Z M-16.04296875 75.875 C-16.71383995 77.4982687 -17.37953904 79.12367578 -18.04296875 80.75 C-18.41421875 81.65492187 -18.78546875 82.55984375 -19.16796875 83.4921875 C-20.15787101 85.76483858 -20.15787101 85.76483858 -20.04296875 87.875 C-19.05296875 87.875 -18.06296875 87.875 -17.04296875 87.875 C-15.39296875 84.575 -13.74296875 81.275 -12.04296875 77.875 C-13.36296875 77.215 -14.68296875 76.555 -16.04296875 75.875 Z M-49.04296875 80.875 C-49.70296875 82.195 -50.36296875 83.515 -51.04296875 84.875 C-49.72296875 83.555 -48.40296875 82.235 -47.04296875 80.875 C-47.70296875 80.875 -48.36296875 80.875 -49.04296875 80.875 Z M-62.04296875 81.875 C-62.37296875 83.855 -62.70296875 85.835 -63.04296875 87.875 C-62.38296875 86.885 -61.72296875 85.895 -61.04296875 84.875 C-61.37296875 83.885 -61.70296875 82.895 -62.04296875 81.875 Z M-58.04296875 81.875 C-57.04296875 83.875 -57.04296875 83.875 -57.04296875 83.875 Z M-59.04296875 83.875 C-58.04296875 85.875 -58.04296875 85.875 -58.04296875 85.875 Z M-30.04296875 84.875 C-29.04296875 86.875 -29.04296875 86.875 -29.04296875 86.875 Z M-26.04296875 84.875 C-25.04296875 86.875 -25.04296875 86.875 -25.04296875 86.875 Z M-60.04296875 86.875 C-59.04296875 89.875 -59.04296875 89.875 -59.04296875 89.875 Z M-31.04296875 86.875 C-31.70296875 88.855 -32.36296875 90.835 -33.04296875 92.875 C-32.38296875 92.875 -31.72296875 92.875 -31.04296875 92.875 C-30.71296875 90.895 -30.38296875 88.915 -30.04296875 86.875 C-30.37296875 86.875 -30.70296875 86.875 -31.04296875 86.875 Z M-64.04296875 87.875 C-63.9289821 89.50080966 -63.80141216 91.12567157 -63.66796875 92.75 C-63.59835938 93.65492187 -63.52875 94.55984375 -63.45703125 95.4921875 C-63.24728743 98.05441903 -63.24728743 98.05441903 -61.04296875 99.875 C-61.22859375 98.01875 -61.22859375 98.01875 -61.41796875 96.125 C-61.48757812 95.42890625 -61.5571875 94.7328125 -61.62890625 94.015625 C-62.0782984 91.6923524 -62.90071113 89.9366357 -64.04296875 87.875 Z M-56.04296875 88.875 C-55.04296875 92.875 -55.04296875 92.875 -55.04296875 92.875 Z M-45.04296875 89.875 C-45.37296875 90.535 -45.70296875 91.195 -46.04296875 91.875 C-44.72296875 91.545 -43.40296875 91.215 -42.04296875 90.875 C-43.03296875 90.545 -44.02296875 90.215 -45.04296875 89.875 Z M-20.04296875 92.875 C-18.98810824 98.99596691 -17.39079849 103.63006674 -14.04296875 108.875 C-12.72296875 108.875 -11.40296875 108.875 -10.04296875 108.875 C-11.5920971 101.40967673 -13.65596624 97.1796647 -20.04296875 92.875 Z M-59.04296875 93.875 C-58.71296875 94.865 -58.38296875 95.855 -58.04296875 96.875 C-57.38296875 95.885 -56.72296875 94.895 -56.04296875 93.875 C-57.03296875 93.875 -58.02296875 93.875 -59.04296875 93.875 Z M-63.04296875 105.875 C-65.82914043 109.80212681 -68.45938086 113.81253076 -71.04296875 117.875 C-71.70296875 118.865 -72.36296875 119.855 -73.04296875 120.875 C-72.38296875 121.535 -71.72296875 122.195 -71.04296875 122.875 C-68.00898243 122.8956868 -68.00898243 122.8956868 -64.60546875 122.5 C-58.10110828 121.875 -58.10110828 121.875 -55.04296875 121.875 C-55.08421875 120.6375 -55.12546875 119.4 -55.16796875 118.125 C-55.17955166 114.85862038 -54.89983895 112.6603053 -53.04296875 109.875 C-52.38296875 110.865 -51.72296875 111.855 -51.04296875 112.875 C-48.98667418 113.52434531 -48.98667418 113.52434531 -46.66796875 113.8125 C-42.65890165 114.56783148 -40.60017184 115.53951771 -38.04296875 118.875 C-37.38296875 118.545 -36.72296875 118.215 -36.04296875 117.875 C-36.19765625 116.76125 -36.19765625 116.76125 -36.35546875 115.625 C-36.25234375 114.7175 -36.14921875 113.81 -36.04296875 112.875 C-35.21796875 112.2975 -34.39296875 111.72 -33.54296875 111.125 C-30.72142513 109.06458695 -30.72142513 109.06458695 -30.5546875 105.640625 C-30.61269531 104.48046875 -30.67070312 103.3203125 -30.73046875 102.125 C-30.77558594 100.95453125 -30.82070312 99.7840625 -30.8671875 98.578125 C-30.92519531 97.68609375 -30.98320312 96.7940625 -31.04296875 95.875 C-43.44019498 90.41144366 -54.95948134 95.74783181 -63.04296875 105.875 Z M-25.04296875 96.875 C-25.04296875 98.195 -25.04296875 99.515 -25.04296875 100.875 C-24.38296875 100.875 -23.72296875 100.875 -23.04296875 100.875 C-23.04296875 99.555 -23.04296875 98.235 -23.04296875 96.875 C-23.70296875 96.875 -24.36296875 96.875 -25.04296875 96.875 Z M-28.04296875 102.875 C-28.04296875 104.525 -28.04296875 106.175 -28.04296875 107.875 C-27.05296875 108.37 -27.05296875 108.37 -26.04296875 108.875 C-26.37296875 106.895 -26.70296875 104.915 -27.04296875 102.875 C-27.37296875 102.875 -27.70296875 102.875 -28.04296875 102.875 Z M-10.04296875 110.875 C-9.36111005 114.06285061 -9.36111005 114.06285061 -6.60546875 115.1875 C-3.34071504 117.33745976 -2.95099868 119.16033211 -2.04296875 122.875 C0.26703125 123.205 2.57703125 123.535 4.95703125 123.875 C4.64923553 120.69444427 4.42180998 119.27792951 1.9609375 117.14453125 C1.15527344 116.66371094 0.34960938 116.18289062 -0.48046875 115.6875 C-2.96892064 114.17365848 -4.97794766 112.94002109 -7.04296875 110.875 C-8.03296875 110.875 -9.02296875 110.875 -10.04296875 110.875 Z M-84.04296875 119.875 C-83.04296875 121.875 -83.04296875 121.875 -83.04296875 121.875 Z " fill="#031329" transform="translate(173.04296875,23.125)"/>
<path d="M0 0 C0.99 0 1.98 0 3 0 C2.62287925 5.90822514 1.12045252 8.69191294 -2.8125 13.0625 C-6.23561859 16.91034822 -9.23985114 20.66997627 -12 25 C-5.63876684 27.51409031 0.16018724 29.48378772 7 30 C7.66 26.7 8.32 23.4 9 20 C9.66 20 10.32 20 11 20 C12.22222222 27.33333333 12.22222222 27.33333333 11.1875 30.4375 C10 32 10 32 8 33 C5.2764805 32.91075148 2.58986689 32.76646668 -0.125 32.5625 C-0.87910156 32.51029297 -1.63320312 32.45808594 -2.41015625 32.40429688 C-4.2737937 32.27454996 -6.13694996 32.13792512 -8 32 C-8.29648438 32.76957031 -8.59296875 33.53914063 -8.8984375 34.33203125 C-10 37 -10 37 -11.625 39.6875 C-13.17035846 41.83811106 -13.17035846 41.83811106 -13 44 C-12.2575 44.495 -11.515 44.99 -10.75 45.5 C-7.88527586 48.10429468 -7.28164573 49.40246896 -6 52.9375 C-3.27634442 60.32717907 1.26552817 63.43469138 8 67 C7.979375 65.96875 7.95875 64.9375 7.9375 63.875 C8.48512376 60.24144235 9.91148821 58.75658654 12.8125 56.5625 C18.28435471 53.26884749 23.76820467 53.0268668 30 54 C30.99 54.66 31.98 55.32 33 56 C34.0098701 61.17558428 31.8882123 64.59977501 29.38671875 68.94921875 C28 71 28 71 25 74 C28.63 74 32.26 74 36 74 C36.350625 72.47375 36.70125 70.9475 37.0625 69.375 C38.74510843 63.84195741 41.03309225 60.92624022 46 58 C52.04563933 54.99924471 57.44575257 54.37680927 64 56 C67.5 57.375 67.5 57.375 70 59 C70.33 59.99 70.66 60.98 71 62 C69.94039062 62.55429688 68.88078125 63.10859375 67.7890625 63.6796875 C66.40094005 64.41126555 65.01292477 65.14304698 63.625 65.875 C62.57699219 66.42220703 62.57699219 66.42220703 61.5078125 66.98046875 C57.48015204 69.10315095 57.48015204 69.10315095 54 72 C56.28816079 71.46064781 58.49800432 70.83708144 60.734375 70.10546875 C69.88406237 67.32026599 69.88406237 67.32026599 74.375 69.375 C78.77523981 72.17682284 83.08028544 75.86931599 84.58984375 81.0078125 C84.875 82.9375 84.875 82.9375 85 86 C75.5543493 86.44979289 68.69413991 84.67900803 61 79 C56.53918818 76.02612545 52.23354074 76.61233032 47 77 C43.49170286 77.85715849 43.49170286 77.85715849 41 79 C41.48210937 79.51949219 41.96421875 80.03898437 42.4609375 80.57421875 C48.40569854 87.13772023 50.42902869 91.13340708 50 100 C49.67 100.99 49.34 101.98 49 103 C43.22376347 102.61198918 39.7172429 100.89168017 35.3125 97.3125 C34.75755859 96.89033203 34.20261719 96.46816406 33.63085938 96.03320312 C29.37962615 92.68175529 25.46299358 89.02797801 24.609375 83.4453125 C24.73958333 81.296875 24.86979167 79.1484375 25 77 C21.37 77.33 17.74 77.66 14 78 C14.928125 79.381875 15.85625 80.76375 16.8125 82.1875 C17.35648437 83.01121094 17.90046875 83.83492188 18.4609375 84.68359375 C19.59440024 86.38954148 20.75784994 88.07565798 21.9375 89.75 C23.27183 92.57564 22.92093547 94.06975078 22 97 C16.77028126 97.31378312 13.41426281 96.90940049 9 94 C5.59968511 89.68421571 3.95025821 84.09839075 2 79 C-2.70484566 80.84503751 -6.08685163 82.73904302 -10 86 C-13.61930698 87.20643566 -16.19231005 87.32268559 -20 87 C-23.11138055 85.25762689 -25.546257 83.45460236 -28.0625 80.93359375 C-32.23856508 78.18472113 -35.96494501 78.06770784 -40.875 77.8125 C-41.74769531 77.72419922 -42.62039062 77.63589844 -43.51953125 77.54492188 C-47.32017062 77.32488486 -49.91831021 77.21195913 -53.06933594 79.50756836 C-54.92091323 81.34511107 -54.92091323 81.34511107 -56.48291016 83.28613281 C-59.00279292 86.13286229 -61.37183677 86.89859331 -65 88 C-68.9375 88.1875 -68.9375 88.1875 -72 88 C-72.16702456 83.65736138 -72.12999997 80.79039366 -70 77 C-76.06483976 76.13508299 -81.37367865 75.47715418 -87.25 77.5 C-92.1329478 79.17973404 -94.97115255 79.40148208 -100 78 C-104.11606516 75.49951071 -106.54221271 73.07480495 -108.4375 68.625 C-108.623125 67.75875 -108.80875 66.8925 -109 66 C-102.26445988 63.16398311 -95.3223839 62.9399513 -88.4375 65.375 C-85 67 -85 67 -84 69 C-83.85801153 61.9446097 -83.85801153 61.9446097 -84.5625 54.9375 C-84.706875 53.968125 -84.85125 52.99875 -85 52 C-84 51 -84 51 -81.75 50.5625 C-78.30040098 51.11129984 -77.05702167 52.60725469 -75.00390625 55.35546875 C-72.58649657 59.31550562 -72.89512771 63.4904914 -73 68 C-70.02418647 65.22941499 -68.02092308 62.51464884 -66 59 C-65.18595703 58.07574219 -65.18595703 58.07574219 -64.35546875 57.1328125 C-62.76642741 55.10560305 -62.76642741 55.10560305 -63.1796875 52.7734375 C-63.40914062 51.98195312 -63.63859375 51.19046875 -63.875 50.375 C-65.45891773 43.75578823 -65.58011496 36.02110243 -62 30 C-59.05835409 26.46546422 -56.5095853 23.48178254 -52.0625 22.0625 C-51.0415625 22.0315625 -51.0415625 22.0315625 -50 22 C-50 22.66 -50 23.32 -50 24 C-49.51789063 23.566875 -49.03578125 23.13375 -48.5390625 22.6875 C-47.90742187 22.130625 -47.27578125 21.57375 -46.625 21 C-45.99851563 20.443125 -45.37203125 19.88625 -44.7265625 19.3125 C-43 18 -43 18 -41 18 C-41.33 19.32 -41.66 20.64 -42 22 C-39.65941363 19.87219421 -38.29299694 17.88437779 -37 15 C-36.34 15 -35.68 15 -35 15 C-34.505 15.99 -34.505 15.99 -34 17 C-33.67 15.68 -33.34 14.36 -33 13 C-32.34 13 -31.68 13 -31 13 C-30.66707415 17.24480464 -30.56114128 19.35542625 -33 22.9375 C-33.66 23.618125 -34.32 24.29875 -35 25 C-32.53686261 23.17251097 -31.16571382 21.77023784 -30.51171875 18.73046875 C-30.27481707 16.48520654 -30.09638651 14.25544422 -30 12 C-29.01 12 -28.02 12 -27 12 C-26.34 11.01 -25.68 10.02 -25 9 C-24.01 9 -23.02 9 -22 9 C-21.01 10.485 -21.01 10.485 -20 12 C-19.67 10.02 -19.34 8.04 -19 6 C-18.01 6.33 -17.02 6.66 -16 7 C-16 9.31 -16 11.62 -16 14 C-14.6696875 13.071875 -14.6696875 13.071875 -13.3125 12.125 C-10 10 -10 10 -7.375 9.0625 C-4.24274415 7.66122764 -2.91597804 5.80553927 -1 3 C-0.67 2.01 -0.34 1.02 0 0 Z M-55.125 26.5 C-56.07375 27.325 -57.0225 28.15 -58 29 C-54.75434142 29.34055197 -54.75434142 29.34055197 -52.3125 26.5 C-51.549375 25.675 -50.78625 24.85 -50 24 C-52.58926331 24 -53.20051661 24.82653618 -55.125 26.5 Z M-46 24 C-46.33 24.66 -46.66 25.32 -47 26 C-46.01 25.67 -45.02 25.34 -44 25 C-44.66 24.67 -45.32 24.34 -46 24 Z M-32 27 C-32.33 27.66 -32.66 28.32 -33 29 C-32.34 29 -31.68 29 -31 29 C-31.33 28.34 -31.66 27.68 -32 27 Z M-14 27 C-14.6708712 28.6232687 -15.33657029 30.24867578 -16 31.875 C-16.37125 32.77992187 -16.7425 33.68484375 -17.125 34.6171875 C-18.11490226 36.88983858 -18.11490226 36.88983858 -18 39 C-17.01 39 -16.02 39 -15 39 C-13.35 35.7 -11.7 32.4 -10 29 C-11.32 28.34 -12.64 27.68 -14 27 Z M-47 32 C-47.66 33.32 -48.32 34.64 -49 36 C-47.68 34.68 -46.36 33.36 -45 32 C-45.66 32 -46.32 32 -47 32 Z M-60 33 C-60.33 34.98 -60.66 36.96 -61 39 C-60.34 38.01 -59.68 37.02 -59 36 C-59.33 35.01 -59.66 34.02 -60 33 Z M-56 33 C-55 35 -55 35 -55 35 Z M-57 35 C-56 37 -56 37 -56 37 Z M-28 36 C-27 38 -27 38 -27 38 Z M-24 36 C-23 38 -23 38 -23 38 Z M-58 38 C-57 41 -57 41 -57 41 Z M-29 38 C-29.66 39.98 -30.32 41.96 -31 44 C-30.34 44 -29.68 44 -29 44 C-28.67 42.02 -28.34 40.04 -28 38 C-28.33 38 -28.66 38 -29 38 Z M-62 39 C-61.88601335 40.62580966 -61.75844341 42.25067157 -61.625 43.875 C-61.55539063 44.77992187 -61.48578125 45.68484375 -61.4140625 46.6171875 C-61.20431868 49.17941903 -61.20431868 49.17941903 -59 51 C-59.185625 49.14375 -59.185625 49.14375 -59.375 47.25 C-59.44460937 46.55390625 -59.51421875 45.8578125 -59.5859375 45.140625 C-60.03532965 42.8173524 -60.85774238 41.0616357 -62 39 Z M-54 40 C-53 44 -53 44 -53 44 Z M-43 41 C-43.33 41.66 -43.66 42.32 -44 43 C-42.68 42.67 -41.36 42.34 -40 42 C-40.99 41.67 -41.98 41.34 -43 41 Z M-18 44 C-16.94513949 50.12096691 -15.34782974 54.75506674 -12 60 C-10.68 60 -9.36 60 -8 60 C-9.54912835 52.53467673 -11.61299749 48.3046647 -18 44 Z M-57 45 C-56.67 45.99 -56.34 46.98 -56 48 C-55.34 47.01 -54.68 46.02 -54 45 C-54.99 45 -55.98 45 -57 45 Z M-61 57 C-63.78617168 60.92712681 -66.41641211 64.93753076 -69 69 C-69.66 69.99 -70.32 70.98 -71 72 C-70.34 72.66 -69.68 73.32 -69 74 C-65.96601368 74.0206868 -65.96601368 74.0206868 -62.5625 73.625 C-56.05813953 73 -56.05813953 73 -53 73 C-53.04125 71.7625 -53.0825 70.525 -53.125 69.25 C-53.13658291 65.98362038 -52.8568702 63.7853053 -51 61 C-50.34 61.99 -49.68 62.98 -49 64 C-46.94370543 64.64934531 -46.94370543 64.64934531 -44.625 64.9375 C-40.6159329 65.69283148 -38.55720309 66.66451771 -36 70 C-35.34 69.67 -34.68 69.34 -34 69 C-34.1546875 67.88625 -34.1546875 67.88625 -34.3125 66.75 C-34.209375 65.8425 -34.10625 64.935 -34 64 C-33.175 63.4225 -32.35 62.845 -31.5 62.25 C-28.67845638 60.18958695 -28.67845638 60.18958695 -28.51171875 56.765625 C-28.56972656 55.60546875 -28.62773437 54.4453125 -28.6875 53.25 C-28.73261719 52.07953125 -28.77773437 50.9090625 -28.82421875 49.703125 C-28.88222656 48.81109375 -28.94023437 47.9190625 -29 47 C-41.39722623 41.53644366 -52.91651259 46.87283181 -61 57 Z M-23 48 C-23 49.32 -23 50.64 -23 52 C-22.34 52 -21.68 52 -21 52 C-21 50.68 -21 49.36 -21 48 C-21.66 48 -22.32 48 -23 48 Z M-26 54 C-26 55.65 -26 57.3 -26 59 C-25.01 59.495 -25.01 59.495 -24 60 C-24.33 58.02 -24.66 56.04 -25 54 C-25.33 54 -25.66 54 -26 54 Z M-8 62 C-7.3181413 65.18785061 -7.3181413 65.18785061 -4.5625 66.3125 C-1.29774629 68.46245976 -0.90802993 70.28533211 0 74 C2.31 74.33 4.62 74.66 7 75 C6.69220428 71.81944427 6.46477873 70.40292951 4.00390625 68.26953125 C3.19824219 67.78871094 2.39257812 67.30789062 1.5625 66.8125 C-0.92595189 65.29865848 -2.93497891 64.06502109 -5 62 C-5.99 62 -6.98 62 -8 62 Z M-82 71 C-81 73 -81 73 -81 73 Z " fill="#1D3254" transform="translate(171,72)"/>
<path d="M0 0 C0.99 0.66 1.98 1.32 3 2 C4.0098701 7.17558428 1.8882123 10.59977501 -0.61328125 14.94921875 C-2 17 -2 17 -5 20 C-1.37 20 2.26 20 6 20 C6.350625 18.47375 6.70125 16.9475 7.0625 15.375 C8.74510843 9.84195741 11.03309225 6.92624022 16 4 C22.04563933 0.99924471 27.44575257 0.37680927 34 2 C37.5 3.375 37.5 3.375 40 5 C40.495 6.485 40.495 6.485 41 8 C39.94039063 8.55429688 38.88078125 9.10859375 37.7890625 9.6796875 C36.40094005 10.41126555 35.01292477 11.14304698 33.625 11.875 C32.92632812 12.23980469 32.22765625 12.60460937 31.5078125 12.98046875 C27.48015204 15.10315095 27.48015204 15.10315095 24 18 C26.28816079 17.46064781 28.49800432 16.83708144 30.734375 16.10546875 C39.88406237 13.32026599 39.88406237 13.32026599 44.375 15.375 C48.77523981 18.17682284 53.08028544 21.86931599 54.58984375 27.0078125 C54.875 28.9375 54.875 28.9375 55 32 C45.5543493 32.44979289 38.69413991 30.67900803 31 25 C26.53918818 22.02612545 22.23354074 22.61233032 17 23 C13.49170286 23.85715849 13.49170286 23.85715849 11 25 C11.48210937 25.51949219 11.96421875 26.03898437 12.4609375 26.57421875 C18.40569854 33.13772023 20.42902869 37.13340708 20 46 C19.67 46.99 19.34 47.98 19 49 C13.22376347 48.61198918 9.7172429 46.89168017 5.3125 43.3125 C4.75755859 42.89033203 4.20261719 42.46816406 3.63085938 42.03320312 C-0.62037385 38.68175529 -4.53700642 35.02797801 -5.390625 29.4453125 C-5.26041667 27.296875 -5.13020833 25.1484375 -5 23 C-8.63 23.33 -12.26 23.66 -16 24 C-15.071875 25.381875 -14.14375 26.76375 -13.1875 28.1875 C-12.64351562 29.01121094 -12.09953125 29.83492187 -11.5390625 30.68359375 C-10.40559976 32.38954148 -9.24215006 34.07565798 -8.0625 35.75 C-6.72817 38.57564 -7.07906453 40.06975078 -8 43 C-13.22971874 43.31378312 -16.58573719 42.90940049 -21 40 C-23.36320461 36.47678894 -25.12312538 32.76007476 -26.8125 28.875 C-27.27269531 27.84117187 -27.73289063 26.80734375 -28.20703125 25.7421875 C-28.46871094 24.83726562 -28.73039063 23.93234375 -29 23 C-28.34 22.01 -27.68 21.02 -27 20 C-25.68 20.33 -24.36 20.66 -23 21 C-23.19471111 19.05000871 -23.19471111 19.05000871 -24 17 C-25.32467746 16.3162955 -26.65863633 15.65035814 -28 15 C-29.0625 13.0625 -29.0625 13.0625 -30 11 C-30.53625 10.46375 -31.0725 9.9275 -31.625 9.375 C-32.07875 8.92125 -32.5325 8.4675 -33 8 C-33 7.34 -33 6.68 -33 6 C-32.34 6 -31.68 6 -31 6 C-29.33333333 7.66666667 -27.66666667 9.33333333 -26 11 C-23.83379456 12.29519995 -23.83379456 12.29519995 -22 13 C-22.020625 11.96875 -22.04125 10.9375 -22.0625 9.875 C-21.51487624 6.24144235 -20.08851179 4.75658654 -17.1875 2.5625 C-11.71564529 -0.73115251 -6.23179533 -0.9731332 0 0 Z " fill="#03142B" transform="translate(201,126)"/>
<path d="M0 0 C0.99 0.33 1.98 0.66 3 1 C2.65068402 6.93837166 1.2948855 9.01937441 -3 13 C-3.28875 13.86625 -3.5775 14.7325 -3.875 15.625 C-5.58987166 19.24528462 -8.36342755 19.66021015 -12 21 C-12.99 21.66 -13.98 22.32 -15 23 C-15 22.34 -15 21.68 -15 21 C-17.64 21.66 -20.28 22.32 -23 23 C-23 23.99 -23 24.98 -23 26 C-24.74965989 30.72408171 -26.63976014 34.17627878 -30 38 C-28.824375 37.814375 -27.64875 37.62875 -26.4375 37.4375 C-22.38731406 36.91769004 -19.00125547 37.2497646 -15 38 C-15 38.33 -15 38.66 -15 39 C-15.845625 39.08636719 -16.69125 39.17273438 -17.5625 39.26171875 C-28.29020066 40.59049076 -34.38379287 43.41100242 -41.2578125 51.7421875 C-47.36941668 58.68458309 -47.36941668 58.68458309 -50 67 C-49.09636719 66.91621094 -48.19273438 66.83242187 -47.26171875 66.74609375 C-45.49248047 66.59333984 -45.49248047 66.59333984 -43.6875 66.4375 C-42.51574219 66.33308594 -41.34398437 66.22867188 -40.13671875 66.12109375 C-37 66 -37 66 -34 67 C-34.226875 65.7625 -34.45375 64.525 -34.6875 63.25 C-35.09666898 60.13146889 -35.18326458 59.31872101 -33.5625 56.5 C-33.046875 56.005 -32.53125 55.51 -32 55 C-31.01 55.495 -31.01 55.495 -30 56 C-30 56.33 -30 56.66 -30 57 C-29.38511719 57.10957031 -28.77023438 57.21914062 -28.13671875 57.33203125 C-26.92435547 57.56986328 -26.92435547 57.56986328 -25.6875 57.8125 C-24.88699219 57.96332031 -24.08648437 58.11414063 -23.26171875 58.26953125 C-20.68206547 59.10268352 -19.60776211 59.82952115 -18 62 C-17.33042504 64.67318858 -17.22637292 67.23825037 -17 70 C-15.35 70 -13.7 70 -12 70 C-12 70.66 -12 71.32 -12 72 C-12.56920166 71.96334229 -13.13840332 71.92668457 -13.72485352 71.88891602 C-16.33683821 71.74222895 -18.9479568 71.65202664 -21.5625 71.5625 C-22.45775391 71.50384766 -23.35300781 71.44519531 -24.27539062 71.38476562 C-29.5151276 71.23986118 -29.5151276 71.23986118 -34.09130859 73.52124023 C-35.93919095 75.35958343 -35.93919095 75.35958343 -37.49389648 77.29492188 C-40.00528176 80.13809172 -42.38045337 80.90120906 -46 82 C-49.9375 82.1875 -49.9375 82.1875 -53 82 C-53.16702456 77.65736138 -53.12999997 74.79039366 -51 71 C-57.06483976 70.13508299 -62.37367865 69.47715418 -68.25 71.5 C-73.1329478 73.17973404 -75.97115255 73.40148208 -81 72 C-85.11606516 69.49951071 -87.54221271 67.07480495 -89.4375 62.625 C-89.623125 61.75875 -89.80875 60.8925 -90 60 C-83.26445988 57.16398311 -76.3223839 56.9399513 -69.4375 59.375 C-66 61 -66 61 -65 63 C-64.85801153 55.9446097 -64.85801153 55.9446097 -65.5625 48.9375 C-65.706875 47.968125 -65.85125 46.99875 -66 46 C-65 45 -65 45 -62.75 44.5625 C-59.30040098 45.11129984 -58.05702167 46.60725469 -56.00390625 49.35546875 C-53.58649657 53.31550562 -53.89512771 57.4904914 -54 62 C-51.02418647 59.22941499 -49.02092308 56.51464884 -47 53 C-46.18595703 52.07574219 -46.18595703 52.07574219 -45.35546875 51.1328125 C-43.76642741 49.10560305 -43.76642741 49.10560305 -44.1796875 46.7734375 C-44.40914062 45.98195312 -44.63859375 45.19046875 -44.875 44.375 C-46.45891773 37.75578823 -46.58011496 30.02110243 -43 24 C-40.05835409 20.46546422 -37.5095853 17.48178254 -33.0625 16.0625 C-32.0415625 16.0315625 -32.0415625 16.0315625 -31 16 C-31 16.66 -31 17.32 -31 18 C-30.51789063 17.566875 -30.03578125 17.13375 -29.5390625 16.6875 C-28.90742187 16.130625 -28.27578125 15.57375 -27.625 15 C-26.99851563 14.443125 -26.37203125 13.88625 -25.7265625 13.3125 C-24 12 -24 12 -22 12 C-22.33 13.32 -22.66 14.64 -23 16 C-20.65941363 13.87219421 -19.29299694 11.88437779 -18 9 C-17.34 9 -16.68 9 -16 9 C-15.505 9.99 -15.505 9.99 -15 11 C-14.67 9.68 -14.34 8.36 -14 7 C-13.34 7 -12.68 7 -12 7 C-11.66707415 11.24480464 -11.56114128 13.35542625 -14 16.9375 C-14.66 17.618125 -15.32 18.29875 -16 19 C-13.53686261 17.17251097 -12.16571382 15.77023784 -11.51171875 12.73046875 C-11.27481707 10.48520654 -11.09638651 8.25544422 -11 6 C-10.01 6 -9.02 6 -8 6 C-7.34 5.01 -6.68 4.02 -6 3 C-5.01 3 -4.02 3 -3 3 C-2.01 4.485 -2.01 4.485 -1 6 C-0.67 4.02 -0.34 2.04 0 0 Z M-36.125 20.5 C-37.07375 21.325 -38.0225 22.15 -39 23 C-35.75434142 23.34055197 -35.75434142 23.34055197 -33.3125 20.5 C-32.549375 19.675 -31.78625 18.85 -31 18 C-33.58926331 18 -34.20051661 18.82653618 -36.125 20.5 Z M-27 18 C-27.33 18.66 -27.66 19.32 -28 20 C-27.01 19.67 -26.02 19.34 -25 19 C-25.66 18.67 -26.32 18.34 -27 18 Z M-28 26 C-28.66 27.32 -29.32 28.64 -30 30 C-28.68 28.68 -27.36 27.36 -26 26 C-26.66 26 -27.32 26 -28 26 Z M-41 27 C-41.33 28.98 -41.66 30.96 -42 33 C-41.34 32.01 -40.68 31.02 -40 30 C-40.33 29.01 -40.66 28.02 -41 27 Z M-37 27 C-36 29 -36 29 -36 29 Z M-38 29 C-37 31 -37 31 -37 31 Z M-39 32 C-38 35 -38 35 -38 35 Z M-43 33 C-42.88601335 34.62580966 -42.75844341 36.25067157 -42.625 37.875 C-42.55539063 38.77992187 -42.48578125 39.68484375 -42.4140625 40.6171875 C-42.20431868 43.17941903 -42.20431868 43.17941903 -40 45 C-40.185625 43.14375 -40.185625 43.14375 -40.375 41.25 C-40.44460937 40.55390625 -40.51421875 39.8578125 -40.5859375 39.140625 C-41.03532965 36.8173524 -41.85774238 35.0616357 -43 33 Z M-35 34 C-34 38 -34 38 -34 38 Z M-38 39 C-37.67 39.99 -37.34 40.98 -37 42 C-36.34 41.01 -35.68 40.02 -35 39 C-35.99 39 -36.98 39 -38 39 Z M-63 65 C-62 67 -62 67 -62 67 Z " fill="#03142C" transform="translate(152,78)"/>
<path d="M0 0 C1.94374396 -0.05780285 3.88797768 -0.09931962 5.83227539 -0.13378906 C6.91489151 -0.15862366 7.99750763 -0.18345825 9.1129303 -0.20904541 C12 0 12 0 14.68359375 2.140625 C15.26238281 3.16671875 15.84117187 4.1928125 16.4375 5.25 C17.14903306 6.43662186 17.86132506 7.62278883 18.57421875 8.80859375 C18.9511084 9.46972168 19.32799805 10.13084961 19.71630859 10.81201172 C21.69263417 14.18056055 23.8619872 17.41730188 26.01196289 20.67675781 C30.12567159 26.91521815 34.16191839 33.19559772 38.02832031 39.59057617 C38.50930176 40.28824097 38.50930176 40.28824097 39 41 C39.33 41 39.66 41 40 41 C39.67 27.47 39.34 13.94 39 0 C41.31 0 43.62 0 46 0 C45.83701416 0.58268646 45.67402832 1.16537292 45.50610352 1.76571655 C44.71792485 5.24527062 44.899555 8.74088243 44.9375 12.2890625 C44.94128662 13.10635834 44.94507324 13.92365417 44.94897461 14.76571655 C44.96516222 18.24361586 44.99280132 21.72139477 45.02050781 25.19921875 C45.10762646 37.17573983 44.81155813 49.0494443 44 61 C42.12451172 61.59643555 42.12451172 61.59643555 40 62 C36.41289895 59.22175507 34.25817321 55.49969773 31.875 51.6875 C31.08065122 50.42761278 30.28503448 49.16852428 29.48828125 47.91015625 C29.07916504 47.26320801 28.67004883 46.61625977 28.24853516 45.94970703 C26.23656346 42.80782084 24.14749506 39.71869182 22.0625 36.625 C17.94889832 30.50519777 14.00709286 24.28932988 10.13500977 18.01416016 C8.29418838 14.83600366 8.29418838 14.83600366 6 12 C5.97470411 18.65689282 5.95715604 25.3137733 5.94506836 31.97070312 C5.94003074 34.23665836 5.93320048 36.50261033 5.92456055 38.76855469 C5.91247004 42.02019047 5.90676608 45.27178339 5.90234375 48.5234375 C5.89718246 49.54118256 5.89202118 50.55892761 5.88670349 51.60751343 C5.88662796 52.54833771 5.88655243 53.48916199 5.88647461 54.45849609 C5.884254 55.28900482 5.88203339 56.11951355 5.87974548 56.97518921 C5.87090818 59.06964964 5.87090818 59.06964964 7 61 C4.03 61.495 4.03 61.495 1 62 C-0.05946564 58.82160309 -0.12064296 56.58154652 -0.11352539 53.2434082 C-0.11344986 52.06241043 -0.11337433 50.88141266 -0.11329651 49.66462708 C-0.10813522 48.38955795 -0.10297394 47.11448883 -0.09765625 45.80078125 C-0.0962413 44.49545944 -0.09482635 43.19013763 -0.09336853 41.84526062 C-0.0895538 38.37810344 -0.07973244 34.91098826 -0.06866455 31.44384766 C-0.05842798 27.90462818 -0.0538661 24.3654019 -0.04882812 20.82617188 C-0.03810923 13.88409735 -0.02104534 6.94205069 0 0 Z " fill="#04122A" transform="translate(493,61)"/>
<path d="M0 0 C1.55003036 0.00063238 3.10015162 0.02317935 4.6496582 0.06347656 C5.87517143 0.07196625 5.87517143 0.07196625 7.1254425 0.08062744 C9.73437148 0.10301459 12.34192581 0.1532131 14.95043945 0.20410156 C16.71929982 0.22416364 18.48818173 0.24241492 20.25708008 0.25878906 C24.59289602 0.30288677 28.9276847 0.37192862 33.26293945 0.45410156 C30.12129614 8.99513044 30.12129614 8.99513044 28.25512695 12.66503906 C27.90836914 13.35210937 27.56161133 14.03917969 27.2043457 14.74707031 C26.85243164 15.43414062 26.50051758 16.12121094 26.13793945 16.82910156 C25.77829102 17.539375 25.41864258 18.24964844 25.0480957 18.98144531 C24.12301965 20.80734449 23.19331591 22.63089747 22.26293945 24.45410156 C21.93293945 25.11410156 21.60293945 25.77410156 21.26293945 26.45410156 C23.24293945 26.45410156 25.22293945 26.45410156 27.26293945 26.45410156 C27.26293945 27.11410156 27.26293945 27.77410156 27.26293945 28.45410156 C24.29293945 28.78410156 21.32293945 29.11410156 18.26293945 29.45410156 C17.90522461 30.92169922 17.90522461 30.92169922 17.5402832 32.41894531 C16.24361559 36.95215004 14.08961674 40.90157821 11.82543945 45.01660156 C11.03449106 46.47592071 10.24411558 47.93555053 9.4543457 49.39550781 C9.08067871 50.08273926 8.70701172 50.7699707 8.32202148 51.47802734 C6.91203369 54.10883445 5.57905724 56.7753152 4.26293945 59.45410156 C7.78436722 59.34328268 11.30481509 59.21288083 14.82543945 59.07910156 C15.81608398 59.04816406 16.80672852 59.01722656 17.82739258 58.98535156 C23.30496468 58.76697659 28.07340485 58.24460018 33.26293945 56.45410156 C33.59293945 57.11410156 33.92293945 57.77410156 34.26293945 58.45410156 C33.31445312 60.4296875 33.31445312 60.4296875 31.26293945 62.45410156 C28.1980648 62.80908424 25.49804887 62.92013338 22.4387207 62.84472656 C21.14661934 62.83623688 21.14661934 62.83623688 19.82841492 62.82757568 C17.07685797 62.80518286 14.32660283 62.75498236 11.57543945 62.70410156 C9.71022388 62.68404026 7.8449879 62.66578885 5.97973633 62.64941406 C1.40696903 62.60530869 -3.16482505 62.53626213 -7.73706055 62.45410156 C-8.06706055 61.79410156 -8.39706055 61.13410156 -8.73706055 60.45410156 C-7.90429688 58.24267578 -7.90429688 58.24267578 -6.5690918 55.50878906 C-6.08762695 54.51363281 -5.60616211 53.51847656 -5.11010742 52.49316406 C-4.59512695 51.44902344 -4.08014648 50.40488281 -3.54956055 49.32910156 C-3.05391602 48.30816406 -2.55827148 47.28722656 -2.04760742 46.23535156 C0.68333488 40.62194836 3.46054923 35.03212887 6.26293945 29.45410156 C4.61293945 29.12410156 2.96293945 28.79410156 1.26293945 28.45410156 C1.26293945 27.79410156 1.26293945 27.13410156 1.26293945 26.45410156 C2.3302832 26.43605469 3.39762695 26.41800781 4.49731445 26.39941406 C8.50792579 25.81507646 8.50792579 25.81507646 10.59106445 22.32128906 C11.25789842 21.00349812 11.8979341 19.67186324 12.51293945 18.32910156 C12.8377832 17.67683594 13.16262695 17.02457031 13.49731445 16.35253906 C15.57880296 12.12241727 17.43487664 7.79857183 19.26293945 3.45410156 C16.19969326 3.56833449 13.13783032 3.69508008 10.07543945 3.82910156 C9.21112305 3.86003906 8.34680664 3.89097656 7.45629883 3.92285156 C3.00398923 4.12755545 -0.68698642 4.39133089 -4.73706055 6.45410156 C-5.39706055 5.79410156 -6.05706055 5.13410156 -6.73706055 4.45410156 C-4.96113705 0.85871179 -4.06141125 0.4935144 0 0 Z " fill="#031229" transform="translate(635.737060546875,60.5458984375)"/>
<path d="M0 0 C0.75 2.125 0.75 2.125 1 4 C0.34 4.33 -0.32 4.66 -1 5 C-2.33390319 4.33447427 -3.66714624 3.66762495 -5 3 C-7.31392665 2.63902256 -7.31392665 2.63902256 -9.765625 2.5859375 C-10.56774414 2.55032715 -11.36986328 2.5147168 -12.19628906 2.47802734 C-13.20401367 2.44402832 -14.21173828 2.4100293 -15.25 2.375 C-18.4675 2.25125 -21.685 2.1275 -25 2 C-25 9.59 -25 17.18 -25 25 C-21.90625 24.7834375 -21.90625 24.7834375 -18.75 24.5625 C-17.58984375 24.48128906 -16.4296875 24.40007812 -15.234375 24.31640625 C-12.69022624 24.06752213 -10.44046752 23.71885058 -8 23 C-8 24.98 -8 26.96 -8 29 C-13.61 28.67 -19.22 28.34 -25 28 C-24.67 37.57 -24.34 47.14 -24 57 C-20.98875 57.04125 -17.9775 57.0825 -14.875 57.125 C-13.93769043 57.14320801 -13.00038086 57.16141602 -12.03466797 57.18017578 C-7.28087151 57.211564 -3.46389449 56.85873639 1 55 C1.33 55.66 1.66 56.32 2 57 C1.01049805 58.97558594 1.01049805 58.97558594 -1 61 C-3.85529894 61.35569326 -6.31917381 61.46681139 -9.16796875 61.390625 C-9.96278152 61.38496521 -10.7575943 61.37930542 -11.57649231 61.37347412 C-14.11410866 61.35109004 -16.6503108 61.30089262 -19.1875 61.25 C-20.90818273 61.2299375 -22.62888759 61.21168629 -24.34960938 61.1953125 C-28.56695082 61.15121894 -32.78323569 61.08217965 -37 61 C-38.05946564 57.82160309 -38.12064296 55.58154652 -38.11352539 52.2434082 C-38.11344986 51.06241043 -38.11337433 49.88141266 -38.11329651 48.66462708 C-38.10813522 47.38955795 -38.10297394 46.11448883 -38.09765625 44.80078125 C-38.0962413 43.49545944 -38.09482635 42.19013763 -38.09336853 40.84526062 C-38.0895538 37.37810344 -38.07973244 33.91098826 -38.06866455 30.44384766 C-38.05842798 26.90462818 -38.0538661 23.3654019 -38.04882812 19.82617188 C-38.03810923 12.88409735 -38.02104534 5.94205069 -38 -1 C-33.23153759 -1.19265746 -28.46283151 -1.37131528 -23.69335938 -1.53710938 C-22.07147216 -1.59545064 -20.44971696 -1.65759217 -18.828125 -1.72363281 C-16.4950362 -1.81798567 -14.1618116 -1.89858886 -11.828125 -1.9765625 C-10.74352997 -2.02485703 -10.74352997 -2.02485703 -9.63702393 -2.0741272 C-5.93367509 -2.1839198 -3.0658767 -2.23261178 0 0 Z " fill="#021129" transform="translate(334,62)"/>
<path d="M0 0 C0.66 1.65 1.32 3.3 2 5 C1.34 5.33 0.68 5.66 0 6 C-0.59844727 5.69916504 -1.19689453 5.39833008 -1.81347656 5.08837891 C-4.35317609 3.82420065 -6.16010164 3.68926457 -8.984375 3.5859375 C-9.82709961 3.55032715 -10.66982422 3.5147168 -11.53808594 3.47802734 C-12.59801758 3.44402832 -13.65794922 3.4100293 -14.75 3.375 C-18.1325 3.25125 -21.515 3.1275 -25 3 C-25 10.59 -25 18.18 -25 26 C-21.04 25.505 -21.04 25.505 -17 25 C-15 25 -13 25 -11 25 C-8.73433657 24.56058477 -8.73433657 24.56058477 -7 24 C-7 25.98 -7 27.96 -7 30 C-12.94 29.67 -18.88 29.34 -25 29 C-25 38.9 -25 48.8 -25 59 C-23.02 59 -21.04 59 -19 59 C-18.67 58.34 -18.34 57.68 -18 57 C-17.34 57.165 -16.68 57.33 -16 57.5 C-9.4314678 58.59475537 -4.23168609 58.0772287 2 56 C1.125 60.875 1.125 60.875 0 62 C-2.64286274 62.11336626 -5.25861456 62.16417761 -7.90234375 62.16796875 C-8.69524307 62.17129715 -9.4881424 62.17462555 -10.30506897 62.17805481 C-11.98551858 62.18312726 -13.66597829 62.18546304 -15.34643555 62.18530273 C-17.92318259 62.18748786 -20.49950076 62.20563609 -23.07617188 62.22460938 C-24.7057277 62.22754345 -26.33528556 62.22952815 -27.96484375 62.23046875 C-29.12583839 62.24124702 -29.12583839 62.24124702 -30.31028748 62.25224304 C-35.77117747 62.22882253 -35.77117747 62.22882253 -38 60 C-37.505 59.505 -37.505 59.505 -37 59 C-36.90112855 57.26676755 -36.87200974 55.52950666 -36.87060547 53.79345703 C-36.86745331 52.68205353 -36.86430115 51.57065002 -36.86105347 50.42556763 C-36.8630777 49.21520844 -36.86510193 48.00484924 -36.8671875 46.7578125 C-36.86623077 45.52336395 -36.86527405 44.28891541 -36.86428833 43.01705933 C-36.86343098 39.7269314 -36.86747107 36.43685022 -36.87304688 33.14672852 C-36.87499498 31.13019298 -36.87305797 29.11370109 -36.86962891 27.09716797 C-36.86346155 23.2340288 -36.86419811 19.37095433 -36.8671875 15.5078125 C-36.86516327 14.30150177 -36.86313904 13.09519104 -36.86105347 11.85232544 C-36.86420563 10.73461761 -36.86735779 9.61690979 -36.87060547 8.46533203 C-36.87140106 7.48017609 -36.87219666 6.49502014 -36.87301636 5.48001099 C-36.89607168 2.86628111 -36.89607168 2.86628111 -38 0 C-25.21819692 -0.93036641 -12.78180308 -0.93036641 0 0 Z " fill="#021028" transform="translate(468,61)"/>
<path d="M0 0 C4.95 0 9.9 0 15 0 C15.515625 1.52625 16.03125 3.0525 16.5625 4.625 C18.54150432 10.11905893 21.01067578 15.23904601 23.71313477 20.40283203 C26 24.80711893 26 24.80711893 26 27 C26.99 27 27.98 27 29 27 C29.2371875 26.17628906 29.474375 25.35257813 29.71875 24.50390625 C31.23657385 20.35302823 33.27572871 16.7429226 35.5 12.9375 C39.15003619 6.66600358 39.15003619 6.66600358 42 0 C44.31 0 46.62 0 49 0 C48.67 0.99 48.34 1.98 48 3 C47.34 3 46.68 3 46 3 C45.59793335 4.07954956 45.59793335 4.07954956 45.18774414 5.1809082 C43.99570022 8.01020547 42.59447129 10.48672564 40.99609375 13.10546875 C33.57813955 25.65996718 28.86627562 35.32047781 30 50 C30.10248047 51.75763672 30.10248047 51.75763672 30.20703125 53.55078125 C30.3946583 56.05353526 30.64444452 58.51658173 31 61 C28.35541621 62.32229189 26.32238699 62.09677194 23.375 62.0625 C22.37210938 62.05347656 21.36921875 62.04445312 20.3359375 62.03515625 C19.56507813 62.02355469 18.79421875 62.01195312 18 62 C16.95524478 58.86573435 16.98664313 57.06191058 17.18359375 53.80078125 C17.75894012 40.55752239 17.24831492 31.08649991 10.10791016 19.81298828 C8.2278624 16.73647117 6.69784188 13.49099468 5.125 10.25 C4.57070313 9.14140625 4.01640625 8.0328125 3.4453125 6.890625 C2.296875 4.59375 1.1484375 2.296875 0 0 Z " fill="#031128" transform="translate(692,61)"/>
<path d="M0 0 C4.62 0 9.24 0 14 0 C14.65104167 2.27864583 15.30208333 4.55729167 15.953125 6.8359375 C17.11594149 10.35042016 18.48221536 13.74744273 19.87207031 17.17724609 C21.91665066 22.29400756 23.82429107 27.46259463 25.75 32.625 C26.16121094 33.72457031 26.57242187 34.82414062 26.99609375 35.95703125 C27.99840977 38.63764386 28.99969231 41.31863746 30 44 C31.67700277 41.48449584 32.55935147 39.72102349 33.515625 36.9296875 C33.79462646 36.12337891 34.07362793 35.31707031 34.36108398 34.48632812 C34.80109741 33.1937207 34.80109741 33.1937207 35.25 31.875 C35.87062246 30.07015037 36.49172509 28.26546579 37.11328125 26.4609375 C37.42604004 25.55053711 37.73879883 24.64013672 38.06103516 23.70214844 C38.95137649 21.13992849 39.86571059 18.58812344 40.79296875 16.0390625 C41.07043945 15.27223145 41.34791016 14.50540039 41.63378906 13.71533203 C42.15840575 12.26928956 42.68750458 10.8248631 43.22167969 9.38232422 C44.43857811 6.00455472 45 3.64620955 45 0 C47.31 0 49.62 0 52 0 C51.57569702 0.80207886 51.57569702 0.80207886 51.14282227 1.62036133 C49.81452913 4.38619624 48.76715593 7.19162964 47.71484375 10.07421875 C47.27068115 11.28811279 46.82651855 12.50200684 46.36889648 13.75268555 C45.89175754 15.0642879 45.41462553 16.37589277 44.9375 17.6875 C44.44688538 19.02977302 43.9560794 20.37197612 43.46508789 21.71411133 C41.0662128 28.27970928 38.68984075 34.85285253 36.34375 41.4375 C35.93648682 42.57872314 35.52922363 43.71994629 35.10961914 44.89575195 C34.34191006 47.05176559 33.57793201 49.20911226 32.81811523 51.36791992 C32.47466064 52.33318604 32.13120605 53.29845215 31.77734375 54.29296875 C31.48077881 55.1336792 31.18421387 55.97438965 30.87866211 56.84057617 C30 59 30 59 28 62 C26.10749817 61.71972656 26.10749817 61.71972656 24 61 C22.64711798 58.23470531 21.5849423 55.64039946 20.57421875 52.75 C20.26353958 51.9038916 19.95286041 51.0577832 19.63276672 50.18603516 C18.6359256 47.46257325 17.66100358 44.73188086 16.6875 42 C15.40551033 38.45622579 14.11522636 34.91549739 12.82421875 31.375 C12.5083078 30.50464111 12.19239685 29.63428223 11.86691284 28.73754883 C8.3178754 19.017066 4.63089026 9.26178053 0 0 Z " fill="#031127" transform="translate(356,61)"/>
<path d="M0 0 C13.86 0 27.72 0 42 0 C42.495 2.475 42.495 2.475 43 5 C37.72 4.34 32.44 3.68 27 3 C27.33 22.14 27.66 41.28 28 61 C23.38 61 18.76 61 14 61 C14.33 41.86 14.66 22.72 15 3 C6.41803115 3.72772117 6.41803115 3.72772117 -2 5 C-1.34 3.35 -0.68 1.7 0 0 Z " fill="#031429" transform="translate(562,61)"/>
<path d="M0 0 C0.99 0.33 1.98 0.66 3 1 C2.65068402 6.93837166 1.2948855 9.01937441 -3 13 C-3.28875 13.86625 -3.5775 14.7325 -3.875 15.625 C-5.58987166 19.24528462 -8.36342755 19.66021015 -12 21 C-12.99 21.66 -13.98 22.32 -15 23 C-15 22.34 -15 21.68 -15 21 C-17.64 21.66 -20.28 22.32 -23 23 C-23 23.99 -23 24.98 -23 26 C-24.74965989 30.72408171 -26.63976014 34.17627878 -30 38 C-28.824375 37.814375 -27.64875 37.62875 -26.4375 37.4375 C-22.38731406 36.91769004 -19.00125547 37.2497646 -15 38 C-15 38.33 -15 38.66 -15 39 C-15.845625 39.08636719 -16.69125 39.17273438 -17.5625 39.26171875 C-25.36780923 40.22851273 -32.1713215 41.48543525 -37.4609375 47.72265625 C-39 49 -39 49 -41.07421875 48.93359375 C-43 48 -43 48 -44.08203125 46.28515625 C-46.39973161 39.23290223 -46.04105458 33.47653471 -44.375 26.3125 C-41.67266536 21.76766447 -38.16927478 17.69232174 -33.0625 16.0625 C-32.0415625 16.0315625 -32.0415625 16.0315625 -31 16 C-31 16.66 -31 17.32 -31 18 C-30.51789063 17.566875 -30.03578125 17.13375 -29.5390625 16.6875 C-28.90742187 16.130625 -28.27578125 15.57375 -27.625 15 C-26.99851562 14.443125 -26.37203125 13.88625 -25.7265625 13.3125 C-24 12 -24 12 -22 12 C-22.33 13.32 -22.66 14.64 -23 16 C-20.65941363 13.87219421 -19.29299694 11.88437779 -18 9 C-17.34 9 -16.68 9 -16 9 C-15.67 9.66 -15.34 10.32 -15 11 C-14.67 9.68 -14.34 8.36 -14 7 C-13.34 7 -12.68 7 -12 7 C-11.66707415 11.24480464 -11.56114128 13.35542625 -14 16.9375 C-14.99 17.9584375 -14.99 17.9584375 -16 19 C-13.53686261 17.17251097 -12.16571382 15.77023784 -11.51171875 12.73046875 C-11.27481707 10.48520654 -11.09638651 8.25544422 -11 6 C-10.01 6 -9.02 6 -8 6 C-7.34 5.01 -6.68 4.02 -6 3 C-5.01 3 -4.02 3 -3 3 C-2.34 3.99 -1.68 4.98 -1 6 C-0.67 4.02 -0.34 2.04 0 0 Z M-36.125 20.5 C-37.07375 21.325 -38.0225 22.15 -39 23 C-35.75434142 23.34055197 -35.75434142 23.34055197 -33.3125 20.5 C-32.549375 19.675 -31.78625 18.85 -31 18 C-33.58926331 18 -34.20051661 18.82653618 -36.125 20.5 Z M-27 18 C-27.33 18.66 -27.66 19.32 -28 20 C-27.01 19.67 -26.02 19.34 -25 19 C-25.66 18.67 -26.32 18.34 -27 18 Z M-28 26 C-28.66 27.32 -29.32 28.64 -30 30 C-28.68 28.68 -27.36 27.36 -26 26 C-26.66 26 -27.32 26 -28 26 Z M-41 27 C-41.33 28.98 -41.66 30.96 -42 33 C-41.34 32.01 -40.68 31.02 -40 30 C-40.33 29.01 -40.66 28.02 -41 27 Z M-37 27 C-36 29 -36 29 -36 29 Z M-38 29 C-37 31 -37 31 -37 31 Z M-39 32 C-38 35 -38 35 -38 35 Z M-43 33 C-42.88601335 34.62580966 -42.75844341 36.25067157 -42.625 37.875 C-42.55539063 38.77992187 -42.48578125 39.68484375 -42.4140625 40.6171875 C-42.20431868 43.17941903 -42.20431868 43.17941903 -40 45 C-40.185625 43.14375 -40.185625 43.14375 -40.375 41.25 C-40.44460937 40.55390625 -40.51421875 39.8578125 -40.5859375 39.140625 C-41.03532965 36.8173524 -41.85774238 35.0616357 -43 33 Z M-35 34 C-34 38 -34 38 -34 38 Z M-38 39 C-37.67 39.99 -37.34 40.98 -37 42 C-36.34 41.01 -35.68 40.02 -35 39 C-35.99 39 -36.98 39 -38 39 Z " fill="#0F244A" transform="translate(152,78)"/>
<path d="M0 0 C1.46366342 0.39753821 2.9208935 0.81881384 4.375 1.25 C5.59316406 1.59804687 5.59316406 1.59804687 6.8359375 1.953125 C9.45785454 3.2214892 9.99382318 4.32423308 11 7 C8 7 8 7 6 6 C5.67 7.32 5.34 8.64 5 10 C6.32 10.99 7.64 11.98 9 13 C9.268125 12.195625 9.53625 11.39125 9.8125 10.5625 C10.204375 9.716875 10.59625 8.87125 11 8 C11.99 7.67 12.98 7.34 14 7 C14.66 7.33 15.32 7.66 16 8 C15.67 9.65 15.34 11.3 15 13 C16.32 13.33 17.64 13.66 19 14 C18.875 15.875 18.875 15.875 18 18 C16.01276732 18.70381157 14.01222047 19.3711811 12 20 C11.67 20.99 11.34 21.98 11 23 C7.97245558 25.30093376 4.70108997 25.41474192 0.96875 25.32421875 C-2.17832363 24.80595067 -3.85759665 23.27224598 -6 21 C-6.33 20.01 -6.66 19.02 -7 18 C-7.99 18 -8.98 18 -10 18 C-10.33 17.01 -10.66 16.02 -11 15 C-11.99 14.67 -12.98 14.34 -14 14 C-15.3253012 6.65060241 -15.3253012 6.65060241 -14 4 C-10.96995686 2.48497843 -8.32447945 2.75374226 -5 3 C-4.67 3.33 -4.34 3.66 -4 4 C-2.68 2.68 -1.36 1.36 0 0 Z " fill="#0B55B4" transform="translate(151,132)"/>
<path d="M0 0 C0.66 0 1.32 0 2 0 C2 3.3 2 6.6 2 10 C1.34 10 0.68 10 0 10 C0.33 11.65 0.66 13.3 1 15 C1.66 15 2.32 15 3 15 C3.64690922 16.6037331 4.29248764 18.20800306 4.9375 19.8125 C5.29714844 20.70582031 5.65679687 21.59914063 6.02734375 22.51953125 C6.73613486 24.3270909 7.3860247 26.15807409 8 28 C9.98 27.67 11.96 27.34 14 27 C14 27.99 14 28.98 14 30 C13.34 30 12.68 30 12 30 C14.25740623 32.33524782 16.2805761 34.18705073 19 36 C19.6875 39.125 19.6875 39.125 20 42 C20.66 42 21.32 42 22 42 C21.875 44.3125 21.875 44.3125 21 47 C18.25 48.5625 18.25 48.5625 15 50 C13.32576317 51.32381517 11.65788785 52.65576661 10 54 C6.38069302 55.20643566 3.80768995 55.32268559 0 55 C-3.125 53.25 -3.125 53.25 -6 51 C-6.94875 50.319375 -7.8975 49.63875 -8.875 48.9375 C-9.926875 47.9784375 -9.926875 47.9784375 -11 47 C-11 46.01 -11 45.02 -11 44 C-12.65 44 -14.3 44 -16 44 C-16.33 41.69 -16.66 39.38 -17 37 C-16.01 37.33 -15.02 37.66 -14 38 C-14 39.32 -14 40.64 -14 42 C-12.68 42.33 -11.36 42.66 -10 43 C-10 43.99 -10 44.98 -10 46 C-9.01 46 -8.02 46 -7 46 C-6.67 45.34 -6.34 44.68 -6 44 C-5.731875 44.94875 -5.46375 45.8975 -5.1875 46.875 C-4.25013412 50.25267273 -4.25013412 50.25267273 -1 52 C5.34999896 52.49303741 5.34999896 52.49303741 11 50 C11.680625 49.319375 12.36125 48.63875 13.0625 47.9375 C15 46 15 46 18 45 C18.33 44.01 18.66 43.02 19 42 C17.35 42 15.7 42 14 42 C14.66 40.02 15.32 38.04 16 36 C14.68 36 13.36 36 12 36 C10.21030974 38.42672567 10.21030974 38.42672567 9 41 C6 40 6 40 3 38 C3.99 37.505 3.99 37.505 5 37 C5.33 36.01 5.66 35.02 6 34 C4.02 33.67 2.04 33.34 0 33 C0 32.67 0 32.34 0 32 C5.41538462 31.63076923 5.41538462 31.63076923 8.375 33.5 C8.91125 33.995 9.4475 34.49 10 35 C9.5748108 32.97034802 9.5748108 32.97034802 8 31 C4.08733883 29.38592164 1.0524829 28.64917237 -3 30 C-3.33 30.99 -3.66 31.98 -4 33 C-4.66 32.67 -5.32 32.34 -6 32 C-10.05142119 31.74139865 -11.54337669 31.69558446 -15 34 C-14.3125 32.0625 -14.3125 32.0625 -13 30 C-10.375 29.25 -10.375 29.25 -8 29 C-8 27.68 -8 26.36 -8 25 C-7.34 25 -6.68 25 -6 25 C-5.67 25.33 -5.34 25.66 -5 26 C-5 24.02 -5 22.04 -5 20 C-4.01 20 -3.02 20 -2 20 C-1.67 18.68 -1.34 17.36 -1 16 C-1.66 16 -2.32 16 -3 16 C-3 15.01 -3 14.02 -3 13 C-3.99 13 -4.98 13 -6 13 C-6.66 12.34 -7.32 11.68 -8 11 C-8 8 -8 8 -6 6 C-4 4 -2 2 0 0 Z " fill="#2F496E" transform="translate(151,104)"/>
<path d="M0 0 C0 0.66 0 1.32 0 2 C-2.5 3.625 -2.5 3.625 -5 5 C-3.081875 4.7525 -3.081875 4.7525 -1.125 4.5 C0.58246572 4.32466782 2.29089672 4.15857659 4 4 C4.88558594 3.90847656 5.77117187 3.81695312 6.68359375 3.72265625 C9.2461879 3.56653982 11.47592898 3.52333191 14 4 C17.54143538 7.62781185 18.5252771 11.01540951 19 16 C18.37609375 16.38800781 17.7521875 16.77601562 17.109375 17.17578125 C14.54631715 19.39235165 14.09321455 20.94112399 13.25 24.1875 C13.00765625 25.08855469 12.7653125 25.98960938 12.515625 26.91796875 C12.34546875 27.60503906 12.1753125 28.29210937 12 29 C11.505 27.515 11.505 27.515 11 26 C10.34 26 9.68 26 9 26 C8.67 26.66 8.34 27.32 8 28 C6.2925002 26.71937515 4.62626404 25.38232443 3 24 C3 23.34 3 22.68 3 22 C4.32 21.34 5.64 20.68 7 20 C6.938125 19.05125 6.87625 18.1025 6.8125 17.125 C6.9053125 15.578125 6.9053125 15.578125 7 14 C7.99 13.34 8.98 12.68 10 12 C10.495 12.99 10.495 12.99 11 14 C13.02463255 14.65213292 13.02463255 14.65213292 15 15 C14.01 13.02 13.02 11.04 12 9 C10.72125 8.979375 9.4425 8.95875 8.125 8.9375 C7.40570313 8.92589844 6.68640625 8.91429688 5.9453125 8.90234375 C3.91814596 8.87350758 3.91814596 8.87350758 2 10 C2.33 8.68 2.66 7.36 3 6 C2.01 6 1.02 6 0 6 C-0.0928125 7.0828125 -0.0928125 7.0828125 -0.1875 8.1875 C-1.29606488 12.02483999 -2.90123038 13.49461179 -6 16 C-8.6096905 17.20985652 -11.26939044 18.10788032 -14 19 C-14.66 19.33 -15.32 19.66 -16 20 C-15.505 15.545 -15.505 15.545 -15 11 C-14.01 10.67 -13.02 10.34 -12 10 C-11.67 11.32 -11.34 12.64 -11 14 C-10.34 11.69 -9.68 9.38 -9 7 C-10.13179687 7.5775 -11.26359375 8.155 -12.4296875 8.75 C-13.91135207 9.50020991 -15.39312873 10.25019847 -16.875 11 C-17.62136719 11.3815625 -18.36773437 11.763125 -19.13671875 12.15625 C-19.85214844 12.5171875 -20.56757813 12.878125 -21.3046875 13.25 C-21.96452637 13.58515625 -22.62436523 13.9203125 -23.30419922 14.265625 C-25 15 -25 15 -27 15 C-26.00866295 12.46599407 -25.37761867 11.22701633 -23.01171875 9.8046875 C-22.24472656 9.49789062 -21.47773438 9.19109375 -20.6875 8.875 C-19.88570312 8.54371094 -19.08390625 8.21242188 -18.2578125 7.87109375 C-16.53384758 7.20596542 -14.80014905 6.56601136 -13.0625 5.9375 C-10.66238996 5.06551356 -10.66238996 5.06551356 -9 2 C-7 1.375 -7 1.375 -5 1 C-3 0 -3 0 0 0 Z M-3 7 C-2 9 -2 9 -2 9 Z " fill="#081D3B" transform="translate(171,66)"/>
<path d="M0 0 C2.06669397 -0.90833725 2.06669397 -0.90833725 4 -2 C4.99 -1.67 5.98 -1.34 7 -1 C8.00821159 1.68856424 8.22736824 3.41703215 7.17578125 6.11328125 C6.16604698 8.10794931 5.11893353 10.0646772 4 12 C4.33 12.33 4.66 12.66 5 13 C5.33 12.01 5.66 11.02 6 10 C6.66 10.33 7.32 10.66 8 11 C8 11.99 8 12.98 8 14 C8.99 14 9.98 14 11 14 C11.33 16.64 11.66 19.28 12 22 C11.01 22.33 10.02 22.66 9 23 C8.67 23.99 8.34 24.98 8 26 C7.34 26 6.68 26 6 26 C6 27.32 6 28.64 6 30 C5.34 29.67 4.68 29.34 4 29 C3.97291433 27.39592672 3.95356517 25.7917215 3.9375 24.1875 C3.92589844 23.29417969 3.91429687 22.40085937 3.90234375 21.48046875 C4 19 4 19 5 16 C3.35 15.67 1.7 15.34 0 15 C0 14.34 0 13.68 0 13 C-2.31 13 -4.62 13 -7 13 C-7 12.34 -7 11.68 -7 11 C-7.66 11 -8.32 11 -9 11 C-9.99 12.485 -9.99 12.485 -11 14 C-12.65 13.67 -14.3 13.34 -16 13 C-14 10 -14 10 -12 7.625 C-9.90216913 5.13533442 -9.90216913 5.13533442 -9 2.3125 C-8 0 -8 0 -6.125 -1.4375 C-3.34825366 -2.17252109 -2.49876965 -1.24938483 0 0 Z M-2 1 C-2 4 -2 4 -2 4 Z " fill="#21395D" transform="translate(137,103)"/>
<path d="M0 0 C0.66 0.33 1.32 0.66 2 1 C-0.97 5.455 -0.97 5.455 -4 10 C2.4507224 12.49965493 8.1033657 14.4794993 15 15 C15.66 11.7 16.32 8.4 17 5 C17.66 5 18.32 5 19 5 C20.22222222 12.33333333 20.22222222 12.33333333 19.1875 15.4375 C18 17 18 17 16 18 C13.2764805 17.91075148 10.58986689 17.76646668 7.875 17.5625 C7.12089844 17.51029297 6.36679688 17.45808594 5.58984375 17.40429688 C3.7262063 17.27454996 1.86305004 17.13792512 0 17 C-0.29648438 17.76957031 -0.59296875 18.53914063 -0.8984375 19.33203125 C-2 22 -2 22 -3.625 24.6875 C-5.17035846 26.83811106 -5.17035846 26.83811106 -5 29 C-4.2575 29.495 -3.515 29.99 -2.75 30.5 C0.61876592 33.56251448 1.49598583 36.32393903 3.03125 40.52734375 C4.79341097 45.02511752 7.39316662 48.75384996 11 52 C10.01 52.495 10.01 52.495 9 53 C7.82460004 52.07347299 6.65989423 51.13336613 5.5 50.1875 C4.52546875 49.40439453 4.52546875 49.40439453 3.53125 48.60546875 C2 47 2 47 2 44 C1.01 43.67 0.02 43.34 -1 43 C-2.02734375 41.07421875 -2.02734375 41.07421875 -2.9375 38.6875 C-4.44588517 35.03010276 -5.88536745 32.55844817 -9 30 C-9.66 30.66 -10.32 31.32 -11 32 C-11.33 30.35 -11.66 28.7 -12 27 C-11.34 27 -10.68 27 -10 27 C-10 26.01 -10 25.02 -10 24 C-9.01 24 -8.02 24 -7 24 C-6.71125 23.2575 -6.4225 22.515 -6.125 21.75 C-5.17697356 19.43260203 -4.15154089 17.22082885 -3 15 C-3.66 14.34 -4.32 13.68 -5 13 C-5.99 13.495 -5.99 13.495 -7 14 C-7.99 10.37 -8.98 6.74 -10 3 C-8.68 3 -7.36 3 -6 3 C-5.67 4.32 -5.34 5.64 -5 7 C-4.67 6.01 -4.34 5.02 -4 4 C-2.70644173 2.62804426 -1.37701298 1.28817344 0 0 Z " fill="#132B50" transform="translate(163,87)"/>
<path d="M0 0 C13.86 0 27.72 0 42 0 C42.495 2.475 42.495 2.475 43 5 C37.39 4.34 31.78 3.68 26 3 C26 2.67 26 2.34 26 2 C23.03 2 20.06 2 17 2 C17.00785522 4.20913086 17.00785522 4.20913086 17.01586914 6.46289062 C17.0340284 11.94953804 17.04547187 17.43618282 17.05493164 22.92285156 C17.05994692 25.29329882 17.06676073 27.66374301 17.07543945 30.03417969 C17.08762813 33.44987753 17.09325649 36.86553431 17.09765625 40.28125 C17.10281754 41.33364868 17.10797882 42.38604736 17.11329651 43.47033691 C17.11371996 49.07912067 16.83850436 54.45252479 16 60 C18.31 60 20.62 60 23 60 C23 60.33 23 60.66 23 61 C20.03 61 17.06 61 14 61 C14.33 41.86 14.66 22.72 15 3 C6.41803115 3.72772117 6.41803115 3.72772117 -2 5 C-1.34 3.35 -0.68 1.7 0 0 Z " fill="#000623" transform="translate(562,61)"/>
<path d="M0 0 C0.66 0.33 1.32 0.66 2 1 C1.69964844 2.10859375 1.39929688 3.2171875 1.08984375 4.359375 C0.70522947 5.82278543 0.32114243 7.2863345 -0.0625 8.75 C-0.26166016 9.47960938 -0.46082031 10.20921875 -0.66601562 10.9609375 C-1.63744407 14.71031044 -2.15449387 17.30274238 -1 21 C-2.32 20.67 -3.64 20.34 -5 20 C-4.505 20.7425 -4.01 21.485 -3.5 22.25 C-2 25 -2 25 -2 29 C-6.39158329 27.5361389 -6.87947433 25.02168662 -9 21 C-9.33 21 -9.66 21 -10 21 C-9.34 22.65 -8.68 24.3 -8 26 C-9.65 25.67 -11.3 25.34 -13 25 C-13.33 23.68 -13.66 22.36 -14 21 C-14.928125 21 -15.85625 21 -16.8125 21 C-18.875 21 -20.9375 21 -23 21 C-22.67 20.34 -22.34 19.68 -22 19 C-21.2575 18.896875 -20.515 18.79375 -19.75 18.6875 C-16.0670322 17.76675805 -14.61952448 15.68501259 -12 13 C-9.1875 11.6875 -9.1875 11.6875 -7 11 C-7 10.34 -7 9.68 -7 9 C-6.34 9 -5.68 9 -5 9 C-5 8.34 -5 7.68 -5 7 C-5.66 6.67 -6.32 6.34 -7 6 C-6.401875 5.938125 -5.80375 5.87625 -5.1875 5.8125 C-2.12856542 4.6763243 -1.44958901 2.82669858 0 0 Z " fill="#061733" transform="translate(139,45)"/>
<path d="M0 0 C4 0 4 0 6.0625 1.875 C6.701875 2.57625 7.34125 3.2775 8 4 C8.99 4.66 9.98 5.32 11 6 C11.6875 9.125 11.6875 9.125 12 12 C12.66 12 13.32 12 14 12 C13.875 14.3125 13.875 14.3125 13 17 C10.25 18.5625 10.25 18.5625 7 20 C5.32576317 21.32381517 3.65788785 22.65576661 2 24 C-1.61930698 25.20643566 -4.19231005 25.32268559 -8 25 C-11.125 23.25 -11.125 23.25 -14 21 C-14.94875 20.319375 -15.8975 19.63875 -16.875 18.9375 C-17.57625 18.298125 -18.2775 17.65875 -19 17 C-19 16.01 -19 15.02 -19 14 C-20.65 14 -22.3 14 -24 14 C-24.33 11.69 -24.66 9.38 -25 7 C-24.01 7.33 -23.02 7.66 -22 8 C-22 9.32 -22 10.64 -22 12 C-20.68 12.33 -19.36 12.66 -18 13 C-18 13.99 -18 14.98 -18 16 C-17.01 16 -16.02 16 -15 16 C-14.67 15.34 -14.34 14.68 -14 14 C-13.731875 14.94875 -13.46375 15.8975 -13.1875 16.875 C-12.25013412 20.25267273 -12.25013412 20.25267273 -9 22 C-2.65000104 22.49303741 -2.65000104 22.49303741 3 20 C3.680625 19.319375 4.36125 18.63875 5.0625 17.9375 C7 16 7 16 10 15 C10.33 14.01 10.66 13.02 11 12 C9.35 12 7.7 12 6 12 C6.66 10.02 7.32 8.04 8 6 C6.68 6 5.36 6 4 6 C2.21030974 8.42672567 2.21030974 8.42672567 1 11 C-2 10 -2 10 -5 8 C-4.34 7.67 -3.68 7.34 -3 7 C-2.67 6.01 -2.34 5.02 -2 4 C-4.97 3.505 -4.97 3.505 -8 3 C-8 2.67 -8 2.34 -8 2 C-2.58461538 1.63076923 -2.58461538 1.63076923 0.375 3.5 C0.91125 3.995 1.4475 4.49 2 5 C1.34 3.35 0.68 1.7 0 0 Z " fill="#03327F" transform="translate(159,134)"/>
<path d="M0 0 C2.31 0 4.62 0 7 0 C6.57787231 0.79664063 6.57787231 0.79664063 6.1472168 1.609375 C4.7911999 4.43510758 3.72207544 7.30638117 2.64453125 10.25 C2.4218457 10.85689667 2.19916016 11.46379333 1.96972656 12.08908081 C1.24810605 14.0584669 0.53014269 16.02916127 -0.1875 18 C-0.68200569 19.35304263 -1.17655343 20.7060699 -1.67114258 22.05908203 C-5.54417313 32.67243011 -9.31811659 43.31876825 -13 54 C-15 51 -15 51 -15 48 C-12.91559874 37.67725089 -8.68758424 27.82670246 -5 18 C-4.01074201 15.35760056 -3.03319603 12.71186409 -2.0625 10.0625 C-1.66160156 8.98097656 -1.26070313 7.89945312 -0.84765625 6.78515625 C0.19410774 3.84743261 0.19410774 3.84743261 0 0 Z " fill="#000721" transform="translate(401,61)"/>
<path d="M0 0 C0.66 0.66 1.32 1.32 2 2 C-3.75 6 -3.75 6 -6 6 C-6 7.32 -6 8.64 -6 10 C-7.29103643 11.3743291 -8.6256709 12.70896357 -10 14 C-11.09658936 17.28976808 -10.79953138 18.71303767 -10 22 C-8.824375 21.814375 -7.64875 21.62875 -6.4375 21.4375 C-2.38731406 20.91769004 0.99874453 21.2497646 5 22 C5 22.33 5 22.66 5 23 C3.81921875 23.13277344 2.6384375 23.26554687 1.421875 23.40234375 C-0.13543262 23.5805898 -1.69272342 23.75898293 -3.25 23.9375 C-4.02730469 24.02451172 -4.80460937 24.11152344 -5.60546875 24.20117188 C-6.35957031 24.28818359 -7.11367187 24.37519531 -7.890625 24.46484375 C-8.58188477 24.543396 -9.27314453 24.62194824 -9.98535156 24.70288086 C-12.03695313 25.00544983 -13.99782535 25.46412384 -16 26 C-16 24.68 -16 23.36 -16 22 C-15.34 22 -14.68 22 -14 22 C-14 19.69 -14 17.38 -14 15 C-14.99 15 -15.98 15 -17 15 C-16.12645988 10.93114207 -15.51915676 9.35794492 -12.03125 6.953125 C-10.8659375 6.39109375 -9.700625 5.8290625 -8.5 5.25 C-3.9071603 3.10461014 -3.9071603 3.10461014 0 0 Z " fill="#142850" transform="translate(132,94)"/>
<path d="M0 0 C0.66 0 1.32 0 2 0 C2.7425 0.763125 3.485 1.52625 4.25 2.3125 C6.79859039 5.18046564 6.79859039 5.18046564 10.1875 6.125 C13 8 13 8 13.68359375 10.55859375 C13.97369501 12.53282268 14.20858228 14.5160978 14.3828125 16.50390625 C14.72347341 19.13977976 14.72347341 19.13977976 16.9140625 20.1640625 C17.60242188 20.43992188 18.29078125 20.71578125 19 21 C21.41735738 24.02169673 22.91155875 25.98292565 23.25 29.875 C23.1675 30.57625 23.085 31.2775 23 32 C20.52442335 29.78051748 19.06482254 28.15233297 17.75 25.0625 C15.36473502 20.88828629 12.15700744 19.23155268 8 17 C8 17.99 8 18.98 8 20 C8.66 20.33 9.32 20.66 10 21 C9.34 21.66 8.68 22.32 8 23 C6 22 6 22 4.75 19.625 C4.5025 18.75875 4.255 17.8925 4 17 C4.66 16.01 5.32 15.02 6 14 C7.32 14.33 8.64 14.66 10 15 C9.80528889 13.05000871 9.80528889 13.05000871 9 11 C7.67532254 10.3162955 6.34136367 9.65035814 5 9 C3.9375 7.0625 3.9375 7.0625 3 5 C2.46375 4.46375 1.9275 3.9275 1.375 3.375 C0.92125 2.92125 0.4675 2.4675 0 2 C0 1.34 0 0.68 0 0 Z " fill="#0B213A" transform="translate(168,132)"/>
<path d="M0 0 C0.33 0 0.66 0 1 0 C1 6.6 1 13.2 1 20 C4.63 20 8.26 20 12 20 C12.33 19.34 12.66 18.68 13 18 C14.30195313 18.02320312 15.60390625 18.04640625 16.9453125 18.0703125 C18.67186924 18.08907942 20.39843221 18.10727863 22.125 18.125 C22.9809375 18.14175781 23.836875 18.15851563 24.71875 18.17578125 C29.56587293 18.21306681 33.44707905 17.89580643 38 16 C38.495 16.99 38.495 16.99 39 18 C38.01049805 19.97558594 38.01049805 19.97558594 36 22 C33.14470106 22.35569326 30.68082619 22.46681139 27.83203125 22.390625 C27.03721848 22.38496521 26.2424057 22.37930542 25.42350769 22.37347412 C22.88589134 22.35109004 20.3496892 22.30089262 17.8125 22.25 C16.09181727 22.2299375 14.37111241 22.21168629 12.65039062 22.1953125 C8.43304918 22.15121894 4.21676431 22.08217965 0 22 C-0.97556564 19.07330309 -1.0606341 17.55938679 -0.87890625 14.55078125 C-0.83056641 13.70322266 -0.78222656 12.85566406 -0.73242188 11.98242188 C-0.67634766 11.10134766 -0.62027344 10.22027344 -0.5625 9.3125 C-0.51029297 8.41982422 -0.45808594 7.52714844 -0.40429688 6.60742188 C-0.2747182 4.4045844 -0.13975754 2.20221127 0 0 Z " fill="#000622" transform="translate(297,101)"/>
<path d="M0 0 C0.66 0.33 1.32 0.66 2 1 C1.5978125 2.85625 1.5978125 2.85625 1.1875 4.75 C0.8469893 6.9483663 0.8469893 6.9483663 1 9 C2.62053812 10.38903267 4.29705213 11.71332828 6 13 C7.18723063 15.45987353 8.09449722 17.96260528 9.03125 20.52734375 C10.79341097 25.02511752 13.39316662 28.75384996 17 32 C16.01 32.495 16.01 32.495 15 33 C13.82460004 32.07347299 12.65989423 31.13336613 11.5 30.1875 C10.8503125 29.66542969 10.200625 29.14335937 9.53125 28.60546875 C8 27 8 27 8 24 C7.01 23.67 6.02 23.34 5 23 C3.97265625 21.07421875 3.97265625 21.07421875 3.0625 18.6875 C1.55411483 15.03010276 0.11463255 12.55844817 -3 10 C-3.66 10.66 -4.32 11.32 -5 12 C-5.33 10.35 -5.66 8.7 -6 7 C-5.34 7 -4.68 7 -4 7 C-4 6.01 -4 5.02 -4 4 C-3.01 4 -2.02 4 -1 4 C-0.67 2.68 -0.34 1.36 0 0 Z " fill="#132F56" transform="translate(157,107)"/>
<path d="M0 0 C0.66 0.66 1.32 1.32 2 2 C1.05151367 3.97558594 1.05151367 3.97558594 -1 6 C-4.06487465 6.35498268 -6.76489058 6.46603182 -9.82421875 6.390625 C-11.11632011 6.38213531 -11.11632011 6.38213531 -12.43452454 6.37347412 C-15.18608148 6.3510813 -17.93633663 6.3008808 -20.6875 6.25 C-22.55271557 6.2299387 -24.41795155 6.21168728 -26.28320312 6.1953125 C-30.85597042 6.15120713 -35.4277645 6.08216057 -40 6 C-40.33 5.34 -40.66 4.68 -41 4 C-39.45675049 3.92483154 -39.45675049 3.92483154 -37.88232422 3.84814453 C-34.04641326 3.65906191 -30.21114832 3.45885457 -26.37597656 3.25537109 C-24.71955534 3.16902504 -23.06297628 3.08565154 -21.40625 3.00537109 C-19.01774639 2.88910379 -16.63002443 2.76197358 -14.2421875 2.6328125 C-13.50757294 2.59938751 -12.77295837 2.56596252 -12.01608276 2.53152466 C-7.70375973 2.28587698 -4.0287446 1.55719014 0 0 Z " fill="#00041F" transform="translate(668,117)"/>
<path d="M0 0 C-0.875 4.875 -0.875 4.875 -2 6 C-4.64286274 6.11336626 -7.25861456 6.16417761 -9.90234375 6.16796875 C-10.69524307 6.17129715 -11.4881424 6.17462555 -12.30506897 6.17805481 C-13.98551858 6.18312726 -15.66597829 6.18546304 -17.34643555 6.18530273 C-19.92318259 6.18748786 -22.49950076 6.20563609 -25.07617188 6.22460938 C-26.7057277 6.22754345 -28.33528556 6.22952815 -29.96484375 6.23046875 C-31.12583839 6.24124702 -31.12583839 6.24124702 -32.31028748 6.25224304 C-37.77117747 6.22882253 -37.77117747 6.22882253 -40 4 C-37.37684968 2.68842484 -35.76966564 3.10350012 -32.875 3.4375 C-31.96492188 3.53933594 -31.05484375 3.64117187 -30.1171875 3.74609375 C-29.41851562 3.82988281 -28.71984375 3.91367188 -28 4 C-27.67 3.34 -27.34 2.68 -27 2 C-24.03 2.495 -24.03 2.495 -21 3 C-20.67 2.34 -20.34 1.68 -20 1 C-19.34 1.165 -18.68 1.33 -18 1.5 C-11.13832189 2.64361302 -6.33417251 0 0 0 Z " fill="#000520" transform="translate(470,117)"/>
<path d="M0 0 C0.99 0.33 1.98 0.66 3 1 C2.76641617 6.72280376 1.27521439 9.46382667 -2.52734375 13.71484375 C-4 15 -4 15 -6 15 C-6 15.66 -6 16.32 -6 17 C-7.98 16.67 -9.96 16.34 -12 16 C-11.67 12.7 -11.34 9.4 -11 6 C-10.01 6 -9.02 6 -8 6 C-7.34 5.01 -6.68 4.02 -6 3 C-5.01 3 -4.02 3 -3 3 C-2.01 4.485 -2.01 4.485 -1 6 C-0.67 4.02 -0.34 2.04 0 0 Z " fill="#081A39" transform="translate(152,78)"/>
<path d="M0 0 C3.37503669 1.1858237 5.64722731 2.27573689 8 5 C3 11.57142857 3 11.57142857 -2 13 C-1.67 13.66 -1.34 14.32 -1 15 C-3.95664519 16.4783226 -6.74229737 16.06032783 -10 16 C-10 14.02 -10 12.04 -10 10 C-9.01 9.67 -8.02 9.34 -7 9 C-5.33289654 7.50014391 -5.33289654 7.50014391 -4 6 C-3.34 6.33 -2.68 6.66 -2 7 C-1.34 6.67 -0.68 6.34 0 6 C0 4.02 0 2.04 0 0 Z " fill="#031229" transform="translate(109,144)"/>
<path d="M0 0 C0.66 0 1.32 0 2 0 C2 3.3 2 6.6 2 10 C1.34 10 0.68 10 0 10 C0.33 11.65 0.66 13.3 1 15 C1.66 15 2.32 15 3 15 C3.33 16.98 3.66 18.96 4 21 C3.34 21 2.68 21 2 21 C1.731875 20.360625 1.46375 19.72125 1.1875 19.0625 C0.11332248 16.66868314 0.11332248 16.66868314 -3 16 C-3 15.01 -3 14.02 -3 13 C-3.99 13 -4.98 13 -6 13 C-6.66 12.34 -7.32 11.68 -8 11 C-8 8 -8 8 -6 6 C-4 4 -2 2 0 0 Z " fill="#294166" transform="translate(151,104)"/>
<path d="M0 0 C2.31 0 4.62 0 7 0 C6.83628906 0.56203125 6.67257812 1.1240625 6.50390625 1.703125 C5.97135003 4.13059056 5.90101319 6.26889681 5.9375 8.75 C5.95103516 9.94882813 5.95103516 9.94882813 5.96484375 11.171875 C5.97644531 11.77515625 5.98804688 12.3784375 6 13 C5.34 12.67 4.68 12.34 4 12 C4 8.7 4 5.4 4 2 C3.34 1.67 2.68 1.34 2 1 C2.33 1.66 2.66 2.32 3 3 C3.1684741 5.41981625 3.28244219 7.81526556 3.3515625 10.23828125 C3.37471527 10.95606247 3.39786804 11.67384369 3.42172241 12.41337585 C3.46937059 13.93395935 3.51460364 15.45462014 3.55761719 16.9753418 C3.62444123 19.29311906 3.70233483 21.6103411 3.78125 23.92773438 C3.82619467 25.40622967 3.8704865 26.88474498 3.9140625 28.36328125 C3.93796051 29.05303543 3.96185852 29.74278961 3.98648071 30.45344543 C4.08111274 34.12152405 3.89052604 37.43574482 3 41 C2.67 41 2.34 41 2 41 C0.92234627 36.5628279 0.78325478 32.17863728 0.68359375 27.63671875 C0.66281265 26.84473587 0.64203156 26.05275299 0.62062073 25.23677063 C0.55552196 22.72043072 0.49642577 20.20399128 0.4375 17.6875 C0.394277 15.97590139 0.35066152 14.26431265 0.30664062 12.55273438 C0.19988153 8.36859016 0.09850365 4.18434638 0 0 Z " fill="#00071D" transform="translate(532,61)"/>
<path d="M0 0 C4 0 4 0 6.0625 1.875 C6.701875 2.57625 7.34125 3.2775 8 4 C8.99 4.66 9.98 5.32 11 6 C11.6875 9.125 11.6875 9.125 12 12 C12.66 12 13.32 12 14 12 C14 12.99 14 13.98 14 15 C12.68 15.33 11.36 15.66 10 16 C10.33 14.68 10.66 13.36 11 12 C9.35 12 7.7 12 6 12 C6.66 10.02 7.32 8.04 8 6 C6.68 6 5.36 6 4 6 C2.21030974 8.42672567 2.21030974 8.42672567 1 11 C-2 10 -2 10 -5 8 C-4.34 7.67 -3.68 7.34 -3 7 C-2.67 6.01 -2.34 5.02 -2 4 C-4.97 3.505 -4.97 3.505 -8 3 C-8 2.67 -8 2.34 -8 2 C-2.58461538 1.63076923 -2.58461538 1.63076923 0.375 3.5 C0.91125 3.995 1.4475 4.49 2 5 C1.34 3.35 0.68 1.7 0 0 Z " fill="#054BA6" transform="translate(159,134)"/>
<path d="M0 0 C1.19923096 0.02094727 2.39846191 0.04189453 3.6340332 0.06347656 C4.93276367 0.07636719 6.23149414 0.08925781 7.56958008 0.10253906 C8.94133548 0.13596055 10.31308027 0.16982034 11.68481445 0.20410156 C13.06825257 0.22416781 14.4517183 0.24241838 15.83520508 0.25878906 C19.22327095 0.30600949 22.60994687 0.37186087 25.99731445 0.45410156 C24.01731445 1.44410156 24.01731445 1.44410156 21.99731445 2.45410156 C21.99731445 3.11410156 21.99731445 3.77410156 21.99731445 4.45410156 C21.38734619 4.44362793 20.77737793 4.4331543 20.14892578 4.42236328 C17.36926438 4.38063535 14.58966907 4.35472234 11.80981445 4.32910156 C10.85010742 4.31234375 9.89040039 4.29558594 8.90161133 4.27832031 C7.50458984 4.26865234 7.50458984 4.26865234 6.0793457 4.25878906 C5.22574463 4.24831543 4.37214355 4.2378418 3.49267578 4.22705078 C0.6900463 4.48205963 -1.44997973 5.29868734 -4.00268555 6.45410156 C-4.66268555 5.79410156 -5.32268555 5.13410156 -6.00268555 4.45410156 C-4.29769703 1.35021696 -3.57860467 0.54119885 0 0 Z " fill="#00061F" transform="translate(635.002685546875,60.5458984375)"/>
<path d="M0 0 C0 0.99 0 1.98 0 3 C-1.2065625 3.4021875 -1.2065625 3.4021875 -2.4375 3.8125 C-3.283125 4.204375 -4.12875 4.59625 -5 5 C-5.33 5.99 -5.66 6.98 -6 8 C-9.02678385 10.30035573 -12.29611005 10.41181622 -16.02734375 10.328125 C-19.15467409 9.8079354 -20.87408467 8.25878504 -23 6 C-23 5.34 -23 4.68 -23 4 C-22.360625 4.33 -21.72125 4.66 -21.0625 5 C-16.98763159 6.33056928 -13.24809575 6.16659199 -9 6 C-8.67 5.34 -8.34 4.68 -8 4 C-8.99 3.67 -9.98 3.34 -11 3 C-7.72430636 -0.27569364 -4.48909309 -0.12469703 0 0 Z " fill="#185DBF" transform="translate(168,147)"/>
<path d="M0 0 C0.33 0 0.66 0 1 0 C1.01030746 0.54679413 1.02061493 1.09358826 1.03123474 1.6569519 C1.13919328 7.33441385 1.25379974 13.01171364 1.37231445 18.68896484 C1.41569752 20.80937313 1.45737007 22.92981712 1.49731445 25.05029297 C1.55493543 28.09353408 1.61865325 31.1365949 1.68359375 34.1796875 C1.70030624 35.13181122 1.71701874 36.08393494 1.73423767 37.06491089 C1.75418289 37.94567291 1.77412811 38.82643494 1.79467773 39.73388672 C1.81022202 40.51110077 1.8257663 41.28831482 1.84178162 42.08908081 C1.88783251 44.08556935 1.88783251 44.08556935 3 46 C0.03 46.495 0.03 46.495 -3 47 C-4.01044795 43.96865616 -4.05032949 42.25604057 -3.87890625 39.11328125 C-3.83056641 38.17548828 -3.78222656 37.23769531 -3.73242188 36.27148438 C-3.67634766 35.29501953 -3.62027344 34.31855469 -3.5625 33.3125 C-3.51029297 32.32443359 -3.45808594 31.33636719 -3.40429688 30.31835938 C-3.27464694 27.87858324 -3.13968258 25.43921895 -3 23 C-2.67 23 -2.34 23 -2 23 C-1.67 29.93 -1.34 36.86 -1 44 C-0.67 29.48 -0.34 14.96 0 0 Z " fill="#000F29" transform="translate(497,76)"/>
<path d="M0 0 C-0.80735881 4.66473981 -1.12273753 6.34205315 -5 9.25 C-16.50299401 14.83233533 -16.50299401 14.83233533 -22 13 C-21 11 -21 11 -17.69140625 9.81640625 C-15.61865822 9.17508072 -13.54038329 8.55599025 -11.45898438 7.94335938 C-6.9742127 6.57939858 -6.9742127 6.57939858 -4 3 C-5.65 2.34 -7.3 1.68 -9 1 C-9 0.67 -9 0.34 -9 0 C-3.375 -1.125 -3.375 -1.125 0 0 Z " fill="#051938" transform="translate(170,44)"/>
<path d="M0 0 C0.66 0 1.32 0 2 0 C4.6875 2.8125 4.6875 2.8125 7 6 C6.67 6.99 6.34 7.98 6 9 C6.66 9.33 7.32 9.66 8 10 C8.640625 11.72265625 8.640625 11.72265625 9.25 14.0625 C10.6439464 19.02437137 12.36132016 23.81018608 14.1875 28.625 C14.59887207 29.70986694 14.59887207 29.70986694 15.01855469 30.81665039 C15.67646049 32.54541611 16.33785566 34.27285327 17 36 C16.01 36.495 16.01 36.495 15 37 C14.61666504 36.0212793 14.23333008 35.04255859 13.83837891 34.03417969 C12.4126842 30.39558368 10.98454082 26.75795293 9.55566406 23.12060547 C8.93813551 21.54762481 8.32126709 19.97438481 7.70507812 18.40087891 C6.81815149 16.13635493 5.92883788 13.87278091 5.0390625 11.609375 C4.76502594 10.90818542 4.49098938 10.20699585 4.20864868 9.48455811 C2.9339427 6.24836739 1.63317514 3.07340132 0 0 Z " fill="#000622" transform="translate(356,61)"/>
<path d="M0 0 C0.33 0.66 0.66 1.32 1 2 C-2.31667745 7.67044855 -4.64395817 9.80125276 -11.01171875 11.4921875 C-11.66785156 11.65976563 -12.32398438 11.82734375 -13 12 C-13.99 12.495 -13.99 12.495 -15 13 C-14.67 10.03 -14.34 7.06 -14 4 C-13.01 3.67 -12.02 3.34 -11 3 C-10.67 4.32 -10.34 5.64 -10 7 C-9.67 6.01 -9.34 5.02 -9 4 C-8.34 4 -7.68 4 -7 4 C-6.67 3.34 -6.34 2.68 -6 2 C-5.67 2.66 -5.34 3.32 -5 4 C-1.72226496 3.24849977 -1.72226496 3.24849977 0 0 Z " fill="#0A1E46" transform="translate(170,73)"/>
<path d="M0 0 C0.99 0 1.98 0 3 0 C2.8746449 6.01704473 0.89962962 8.91148641 -3.015625 13.3984375 C-5.33882062 15.27345759 -7.06799223 15.64613699 -10 16 C-8.06378391 10.70088229 -6.52963048 8.48433114 -2 5 C-0.66701026 2.38181544 -0.66701026 2.38181544 0 0 Z " fill="#1A3258" transform="translate(171,72)"/>
<path d="M0 0 C0.66 0 1.32 0 2 0 C2 1.32 2 2.64 2 4 C3.32 4 4.64 4 6 4 C7.25541557 7.76624671 6.37061958 9.37188934 5 13 C4.67 12.01 4.34 11.02 4 10 C3.34 10 2.68 10 2 10 C1.67 10.66 1.34 11.32 1 12 C-0.7074998 10.71937515 -2.37373596 9.38232443 -4 8 C-4 7.34 -4 6.68 -4 6 C-2.68 5.34 -1.36 4.68 0 4 C0 2.68 0 1.36 0 0 Z " fill="#071A37" transform="translate(178,82)"/>
<path d="M0 0 C0.66 0 1.32 0 2 0 C2.33 0.66 2.66 1.32 3 2 C3.66 1.67 4.32 1.34 5 1 C6.875 1.015625 6.875 1.015625 9 1.25 C9.70125 1.31703125 10.4025 1.3840625 11.125 1.453125 C13 2 13 2 15 5 C13.906875 4.814375 12.81375 4.62875 11.6875 4.4375 C8.06375867 3.7421932 8.06375867 3.7421932 5 5 C4.67 5.99 4.34 6.98 4 8 C3.34 7.67 2.68 7.34 2 7 C-2.05142119 6.74139865 -3.54337669 6.69558446 -7 9 C-6.3125 7.0625 -6.3125 7.0625 -5 5 C-2.375 4.25 -2.375 4.25 0 4 C0 2.68 0 1.36 0 0 Z " fill="#1C4989" transform="translate(143,129)"/>
<path d="M0 0 C6.45010247 0.26875427 10.29672276 2.63413178 15 7 C16.75390625 9.05859375 16.75390625 9.05859375 18 11 C17.6875 13.25 17.6875 13.25 17 15 C15.22345024 13.31227772 13.81642645 11.72831115 12.4375 9.6875 C9.38304456 6.31976708 5.98873975 4.4445535 2.046875 2.234375 C1.37140625 1.82703125 0.6959375 1.4196875 0 1 C0 0.67 0 0.34 0 0 Z " fill="#051932" transform="translate(160,18)"/>
<path d="M0 0 C0.66 0.33 1.32 0.66 2 1 C1.814375 2.2375 1.62875 3.475 1.4375 4.75 C1.05288777 7.76279577 0.9125406 10.10010827 2 13 C-1.875 11.125 -1.875 11.125 -3 10 C-3.66 10.66 -4.32 11.32 -5 12 C-5.33 10.35 -5.66 8.7 -6 7 C-5.34 7 -4.68 7 -4 7 C-4 6.01 -4 5.02 -4 4 C-3.01 4 -2.02 4 -1 4 C-0.67 2.68 -0.34 1.36 0 0 Z " fill="#1E355C" transform="translate(157,107)"/>
<path d="M0 0 C0.66 0 1.32 0 2 0 C2.3125 3.1875 2.3125 3.1875 2 7 C-0.5 9.9375 -0.5 9.9375 -3 12 C-3 11.34 -3 10.68 -3 10 C-4.32 9.34 -5.64 8.68 -7 8 C-6.01 6.02 -5.02 4.04 -4 2 C-3.34 2 -2.68 2 -2 2 C-1.67 2.66 -1.34 3.32 -1 4 C-0.67 2.68 -0.34 1.36 0 0 Z " fill="#0B1A3E" transform="translate(138,85)"/>
<path d="M0 0 C0.66 0 1.32 0 2 0 C2 3.3 2 6.6 2 10 C0.35 10.66 -1.3 11.32 -3 12 C-4.41116678 8.79280276 -3.89413879 7.71609948 -2.625 4.3125 C-1 1 -1 1 0 0 Z " fill="#314B6B" transform="translate(151,104)"/>
<path d="M0 0 C1.22589844 0.01353516 1.22589844 0.01353516 2.4765625 0.02734375 C3.41628906 0.04474609 3.41628906 0.04474609 4.375 0.0625 C4.045 0.7225 3.715 1.3825 3.375 2.0625 C4.695 2.0625 6.015 2.0625 7.375 2.0625 C7.705 3.0525 8.035 4.0425 8.375 5.0625 C7.67632812 5.05089844 6.97765625 5.03929688 6.2578125 5.02734375 C5.34773437 5.01832031 4.43765625 5.00929688 3.5 5 C2.59507812 4.98839844 1.69015625 4.97679688 0.7578125 4.96484375 C-1.6418585 4.90000743 -1.6418585 4.90000743 -3.625 6.0625 C-3.295 4.7425 -2.965 3.4225 -2.625 2.0625 C-4.275 2.7225 -5.925 3.3825 -7.625 4.0625 C-7.295 3.0725 -6.965 2.0825 -6.625 1.0625 C-4.21954362 -0.14022819 -2.67503047 -0.03821472 0 0 Z " fill="#091F3D" transform="translate(176.625,69.9375)"/>
<path d="M0 0 C2.6875 0.3125 2.6875 0.3125 5 1.6875 C7.58255264 5.70480411 7.00686644 9.66394409 6.6875 14.3125 C6.3575 14.3125 6.0275 14.3125 5.6875 14.3125 C5.543125 13.219375 5.39875 12.12625 5.25 11 C4.80461896 7.38127013 4.80461896 7.38127013 3.6875 4.3125 C2.0375 4.6425 0.3875 4.9725 -1.3125 5.3125 C-1.9725 3.9925 -2.6325 2.6725 -3.3125 1.3125 C-2.3125 0.3125 -2.3125 0.3125 0 0 Z " fill="#041332" transform="translate(89.3125,122.6875)"/>
<path d="M0 0 C0.99 0.33 1.98 0.66 3 1 C3 2.32 3 3.64 3 5 C4.32 5.33 5.64 5.66 7 6 C7 6.99 7 7.98 7 9 C7.99 9 8.98 9 10 9 C10.33 8.34 10.66 7.68 11 7 C11.66 9.31 12.32 11.62 13 14 C10.08482708 12.92598892 8.22189824 12.22189824 6 10 C6 9.01 6 8.02 6 7 C4.35 7 2.7 7 1 7 C0.67 4.69 0.34 2.38 0 0 Z " fill="#1E4880" transform="translate(134,141)"/>
<path d="M0 0 C0.66 0.99 1.32 1.98 2 3 C1.125 5.6875 1.125 5.6875 0 8 C0.66 8.66 1.32 9.32 2 10 C-0.31 10.33 -2.62 10.66 -5 11 C-4.4971641 7.31253672 -4.00153469 4.17890804 -2 1 C-1.34 0.67 -0.68 0.34 0 0 Z " fill="#091D38" transform="translate(143,50)"/>
<path d="M0 0 C0 0.99 0 1.98 0 3 C-1.2065625 3.4021875 -1.2065625 3.4021875 -2.4375 3.8125 C-3.283125 4.204375 -4.12875 4.59625 -5 5 C-5.33 5.99 -5.66 6.98 -6 8 C-6.268125 7.360625 -6.53625 6.72125 -6.8125 6.0625 C-7.88667752 3.66868314 -7.88667752 3.66868314 -11 3 C-7.72430636 -0.27569364 -4.48909309 -0.12469703 0 0 Z " fill="#1256B3" transform="translate(168,147)"/>
<path d="M0 0 C2.85289222 1.42644611 3.53033042 3.18313331 5 6 C5.72166191 8.31691454 6.40059529 10.64848923 7 13 C6.01 13 5.02 13 4 13 C3.67 12.01 3.34 11.02 3 10 C2.01 9.67 1.02 9.34 0 9 C-0.87890625 2.84765625 -0.87890625 2.84765625 -1 1 C-0.67 0.67 -0.34 0.34 0 0 Z " fill="#245FAE" transform="translate(137,137)"/>
<path d="M0 0 C4 1 4 1 6.25 3.75 C7.97671748 6.95676103 8.4171331 8.45436862 8 12 C6.02 12 4.04 12 2 12 C1.67 11.34 1.34 10.68 1 10 C2.65 10 4.3 10 6 10 C4.02 6.7 2.04 3.4 0 0 Z " fill="#061934" transform="translate(248,146)"/>
<path d="M0 0 C0.66 0.33 1.32 0.66 2 1 C1.1875 4.4375 1.1875 4.4375 0 8 C-0.99 8.33 -1.98 8.66 -3 9 C-5.6875 7.5625 -5.6875 7.5625 -8 6 C-7.67 5.34 -7.34 4.68 -7 4 C-6.38125 3.855625 -5.7625 3.71125 -5.125 3.5625 C-2.63289608 2.90282543 -1.6670554 1.91711371 0 0 Z " fill="#2A4266" transform="translate(140,108)"/>
<path d="M0 0 C1.134375 0.020625 2.26875 0.04125 3.4375 0.0625 C3.1075 0.7225 2.7775 1.3825 2.4375 2.0625 C1.7775 2.0625 1.1175 2.0625 0.4375 2.0625 C0.7675 3.7125 1.0975 5.3625 1.4375 7.0625 C0.1175 7.0625 -1.2025 7.0625 -2.5625 7.0625 C-3.2225 5.0825 -3.8825 3.1025 -4.5625 1.0625 C-3.5625 0.0625 -3.5625 0.0625 0 0 Z " fill="#1463CA" transform="translate(142.5625,134.9375)"/>
<path d="M0 0 C1.875 0.5625 1.875 0.5625 4 2 C5.0899227 5.05178356 6 7.74156238 6 11 C7.65 11 9.3 11 11 11 C11 11.66 11 12.32 11 13 C9.00045254 13.04254356 6.99958364 13.04080783 5 13 C4 12 4 12 3.6875 8.6875 C2.9404473 4.68058098 2.10324707 3.50261861 -1 1 C-0.67 0.67 -0.34 0.34 0 0 Z " fill="#122C51" transform="translate(129,137)"/>
<path d="M0 0 C1.32 0.33 2.64 0.66 4 1 C3.67 2.65 3.34 4.3 3 6 C0.69 6.33 -1.62 6.66 -4 7 C-2.68 4.69 -1.36 2.38 0 0 Z " fill="#1462C5" transform="translate(163,139)"/>
<path d="M0 0 C0.66 0 1.32 0 2 0 C2 0.99 2 1.98 2 3 C2.598125 2.814375 3.19625 2.62875 3.8125 2.4375 C6 2 6 2 9 3 C9 3.66 9 4.32 9 5 C5.38026598 6.31626692 2.90432869 7 -1 7 C-0.67 4.69 -0.34 2.38 0 0 Z " fill="#051836" transform="translate(182,63)"/>
<path d="M0 0 C1.32 0 2.64 0 4 0 C4 1.32 4 2.64 4 4 C3.34 4 2.68 4 2 4 C1.67 5.65 1.34 7.3 1 9 C-0.32 9.33 -1.64 9.66 -3 10 C-2.36982402 7.05917877 -1.33984264 4.67968527 0 2 C0 1.34 0 0.68 0 0 Z " fill="#081E3C" transform="translate(153,42)"/>
<path d="M0 0 C0.99 0.33 1.98 0.66 3 1 C0.78887149 3.821095 -1.40607177 6.5239776 -4 9 C-4.66 9.66 -5.32 10.32 -6 11 C-6.375 8.3125 -6.375 8.3125 -6 5 C-4.1858385 2.71933982 -2.51005088 1.62415057 0 0 Z " fill="#061633" transform="translate(216,131)"/>
<path d="M0 0 C0.66 0.33 1.32 0.66 2 1 C2.625 4.0625 2.625 4.0625 3 7 C3.66 7 4.32 7 5 7 C5 7.99 5 8.98 5 10 C3.68 10.33 2.36 10.66 1 11 C1.33 9.68 1.66 8.36 2 7 C0.35 7 -1.3 7 -3 7 C-2.67 6.34 -2.34 5.68 -2 5 C-1.34 5 -0.68 5 0 5 C0 3.35 0 1.7 0 0 Z " fill="#154884" transform="translate(168,139)"/>
<path d="M0 0 C0.33 0.66 0.66 1.32 1 2 C-0.65 4.31 -2.3 6.62 -4 9 C-6.475 8.01 -6.475 8.01 -9 7 C-9 6.01 -9 5.02 -9 4 C-8.34 4 -7.68 4 -7 4 C-6.67 3.34 -6.34 2.68 -6 2 C-5.67 2.66 -5.34 3.32 -5 4 C-1.72226496 3.24849977 -1.72226496 3.24849977 0 0 Z " fill="#162C4D" transform="translate(170,73)"/>
<path d="M0 0 C4.00301032 1.76132454 7.6028977 4.26132483 11 7 C11 7.33 11 7.66 11 8 C7.93606987 8.25532751 6.36766788 8.21861333 3.6875 6.625 C3.130625 6.08875 2.57375 5.5525 2 5 C2 4.34 2 3.68 2 3 C1.34 3 0.68 3 0 3 C0 2.01 0 1.02 0 0 Z " fill="#1462CA" transform="translate(144,144)"/>
<path d="M0 0 C0.66 0.99 1.32 1.98 2 3 C1.21654285 4.17219543 0.42297164 5.33763668 -0.375 6.5 C-0.81585938 7.1496875 -1.25671875 7.799375 -1.7109375 8.46875 C-2.13632813 8.9740625 -2.56171875 9.479375 -3 10 C-3.66 10 -4.32 10 -5 10 C-5.33 9.01 -5.66 8.02 -6 7 C-4.78515625 5.17578125 -4.78515625 5.17578125 -3.0625 3.3125 C-2.49660156 2.68988281 -1.93070312 2.06726563 -1.34765625 1.42578125 C-0.90292969 0.95527344 -0.45820312 0.48476562 0 0 Z " fill="#091E40" transform="translate(110,125)"/>
<path d="M0 0 C0.66 0.66 1.32 1.32 2 2 C0.41906946 3.12837409 -1.16484716 4.25256518 -2.75 5.375 C-3.63171875 6.00148438 -4.5134375 6.62796875 -5.421875 7.2734375 C-7.57414979 8.71480941 -9.65460523 9.91498093 -12 11 C-11.5 8.75 -11.5 8.75 -10 6 C-8.0178628 4.76116425 -6.01958294 3.82095954 -3.875 2.89453125 C-1.81936523 2.04184795 -1.81936523 2.04184795 0 0 Z " fill="#203456" transform="translate(132,94)"/>
<path d="M0 0 C0.33 0.66 0.66 1.32 1 2 C-1.37787154 5.90650325 -2.92458858 8.03256 -7 10 C-7.80528889 12.05000871 -7.80528889 12.05000871 -8 14 C-8.66 13.67 -9.32 13.34 -10 13 C-8.00429734 8.37837278 -6.01490082 5.98543907 -2 3 C-1.34 2.01 -0.68 1.02 0 0 Z " fill="#2E4263" transform="translate(171,74)"/>
<path d="M0 0 C1.98 0.495 1.98 0.495 4 1 C4.6875 2.8125 4.6875 2.8125 5 5 C3.5625 6.75 3.5625 6.75 2 8 C0.4375 5.6875 0.4375 5.6875 -1 3 C-0.67 2.01 -0.34 1.02 0 0 Z " fill="#010D2A" transform="translate(63,137)"/>
<path d="M0 0 C0.66 0.33 1.32 0.66 2 1 C1.67 1.66 1.34 2.32 1 3 C2.98 3 4.96 3 7 3 C7 3.66 7 4.32 7 5 C3.52674819 6.1577506 0.63932552 6.06866652 -3 6 C-2.34 5.67 -1.68 5.34 -1 5 C-0.34444881 2.47266765 -0.34444881 2.47266765 0 0 Z " fill="#00061F" transform="translate(656,84)"/>
<path d="M0 0 C1.98 1.65 3.96 3.3 6 5 C5.67 5.99 5.34 6.98 5 8 C2.69 7.67 0.38 7.34 -2 7 C-1.34 6.01 -0.68 5.02 0 4 C0 2.68 0 1.36 0 0 Z " fill="#081931" transform="translate(146,62)"/>
<path d="M0 0 C-0.33 0.66 -0.66 1.32 -1 2 C-2.051875 1.8453125 -2.051875 1.8453125 -3.125 1.6875 C-7.30732311 2.14210034 -8.95201113 4.16466151 -12 7 C-12 5.68 -12 4.36 -12 3 C-11.34 3 -10.68 3 -10 3 C-10.33 2.01 -10.66 1.02 -11 0 C-7.01803543 -1.05404945 -4.01804691 -0.84098656 0 0 Z " fill="#071730" transform="translate(667,62)"/>
<path d="M0 0 C3.12270126 2.51830747 3.94523098 3.7261549 4.75 7.75 C4.8325 8.8225 4.915 9.895 5 11 C1.87729874 8.48169253 1.05476902 7.2738451 0.25 3.25 C0.1675 2.1775 0.085 1.105 0 0 Z " fill="#071B3D" transform="translate(186,153)"/>
<path d="M0 0 C2.875 0.1875 2.875 0.1875 6 1 C7.375 3.5625 7.375 3.5625 8 6 C5.03 5.505 5.03 5.505 2 5 C2.33 4.34 2.66 3.68 3 3 C1.35 3.33 -0.3 3.66 -2 4 C-1.34 2.68 -0.68 1.36 0 0 Z " fill="#051730" transform="translate(78,137)"/>
<path d="M0 0 C1.98 0.66 3.96 1.32 6 2 C5.01 2.33 4.02 2.66 3 3 C3 3.99 3 4.98 3 6 C3.66 6.33 4.32 6.66 5 7 C4.34 7.66 3.68 8.32 3 9 C1 8 1 8 -0.1875 5.625 C-1 3 -1 3 0 0 Z " fill="#112646" transform="translate(173,146)"/>
<path d="M0 0 C2.0625 0.4375 2.0625 0.4375 4 1 C3.67 1.66 3.34 2.32 3 3 C2.34 3 1.68 3 1 3 C1 4.65 1 6.3 1 8 C-0.32 7.34 -1.64 6.68 -3 6 C-1.125 1.125 -1.125 1.125 0 0 Z " fill="#0E59B9" transform="translate(154,143)"/>
<path d="M0 0 C2 0 2 0 4.4375 2.3125 C5.283125 3.199375 6.12875 4.08625 7 5 C7.598125 5.598125 8.19625 6.19625 8.8125 6.8125 C9.204375 7.204375 9.59625 7.59625 10 8 C9.67 8.66 9.34 9.32 9 10 C7.125 9.75 7.125 9.75 5 9 C3.9375 7.125 3.9375 7.125 3 5 C2.46375 4.46375 1.9275 3.9275 1.375 3.375 C0.92125 2.92125 0.4675 2.4675 0 2 C0 1.34 0 0.68 0 0 Z " fill="#09234D" transform="translate(168,132)"/>
<path d="M0 0 C2.31 0 4.62 0 7 0 C6.67 0.99 6.34 1.98 6 3 C5.34 3 4.68 3 4 3 C3.67 3.66 3.34 4.32 3 5 C3 3.68 3 2.36 3 1 C2.34 1 1.68 1 1 1 C0.87625 1.804375 0.7525 2.60875 0.625 3.4375 C0.41875 4.283125 0.2125 5.12875 0 6 C-0.99 6.495 -0.99 6.495 -2 7 C-1.34 4.69 -0.68 2.38 0 0 Z " fill="#000827" transform="translate(734,61)"/>
<path d="M0 0 C-2.05123248 2.05123248 -3.27005063 2.64147118 -5.9375 3.625 C-6.97197266 4.01558594 -6.97197266 4.01558594 -8.02734375 4.4140625 C-10 5 -10 5 -13 5 C-8.7797731 -0.27528362 -6.38501231 -0.54110274 0 0 Z " fill="#061832" transform="translate(143,18)"/>
<path d="M0 0 C0.99 0 1.98 0 3 0 C4.34423339 1.65788785 5.67618483 3.32576317 7 5 C9.61857695 6.78962819 9.61857695 6.78962819 12 8 C10 9 10 9 7.6875 8.5 C3.98448493 6.43320089 2.22251478 3.53710863 0 0 Z " fill="#081B33" transform="translate(201,162)"/>
<path d="M0 0 C4 0 4 0 6.75 2.1875 C9 5 9 5 9.3125 7.8125 C9.1578125 8.8953125 9.1578125 8.8953125 9 10 C8.938125 9.071875 8.938125 9.071875 8.875 8.125 C8.58625 7.42375 8.2975 6.7225 8 6 C6.00428677 5.32060826 4.00405227 4.65438441 2 4 C0.625 1.875 0.625 1.875 0 0 Z " fill="#16519F" transform="translate(159,134)"/>
<path d="M0 0 C3.3125 0.1875 3.3125 0.1875 7 1 C8.9375 3.5625 8.9375 3.5625 10 6 C6.08087178 6 4.95856266 4.4275386 2 2 C1.34 2 0.68 2 0 2 C0 1.34 0 0.68 0 0 Z " fill="#1962C4" transform="translate(152,133)"/>
<path d="M0 0 C0.33 1.65 0.66 3.3 1 5 C0.01 4.67 -0.98 4.34 -2 4 C-2 3.01 -2 2.02 -2 1 C-3.32 1.33 -4.64 1.66 -6 2 C-6.33 1.34 -6.66 0.68 -7 0 C-4.3333581 -1.33332095 -2.83319697 -0.67102033 0 0 Z " fill="#132C49" transform="translate(186,71)"/>
<path d="M0 0 C0.99 0.33 1.98 0.66 3 1 C2.67 1.33 2.34 1.66 2 2 C4.97 2.495 4.97 2.495 8 3 C8 3.33 8 3.66 8 4 C4.37 4 0.74 4 -3 4 C-2.67 3.01 -2.34 2.02 -2 1 C-1.34 0.67 -0.68 0.34 0 0 Z " fill="#071A33" transform="translate(66,101)"/>
<path d="M0 0 C0 0.66 0 1.32 0 2 C-1.75 3.2890625 -1.75 3.2890625 -4 4.625 C-4.7425 5.07101563 -5.485 5.51703125 -6.25 5.9765625 C-6.8275 6.31429687 -7.405 6.65203125 -8 7 C-7.44369726 4.25254567 -7.2332666 3.21771549 -5.125 1.25 C-3 0 -3 0 0 0 Z " fill="#051A41" transform="translate(121,94)"/>
<path d="M0 0 C0.66 0.99 1.32 1.98 2 3 C0.68 4.65 -0.64 6.3 -2 8 C-2.66 7.67 -3.32 7.34 -4 7 C-3.6875 4.625 -3.6875 4.625 -3 2 C-2.01 1.34 -1.02 0.68 0 0 Z " fill="#182A53" transform="translate(113,119)"/>
<path d="M0 0 C2.0625 0.4375 2.0625 0.4375 4 1 C4 1.66 4 2.32 4 3 C4.66 3 5.32 3 6 3 C5.67 3.99 5.34 4.98 5 6 C3.35 5.67 1.7 5.34 0 5 C-0.5625 3.0625 -0.5625 3.0625 -1 1 C-0.67 0.67 -0.34 0.34 0 0 Z " fill="#010E2C" transform="translate(142,83)"/>
<path d="M0 0 C2.97 0.495 2.97 0.495 6 1 C6 1.99 6 2.98 6 4 C4 4 2 4 0 4 C0 2.68 0 1.36 0 0 Z " fill="#092140" transform="translate(162,73)"/>
<path d="M0 0 C-0.33 0.99 -0.66 1.98 -1 3 C-7.625 3.25 -7.625 3.25 -11 1 C-9.54182203 0.83197949 -8.0834516 0.66562857 -6.625 0.5 C-5.81289062 0.4071875 -5.00078125 0.314375 -4.1640625 0.21875 C-2 0 -2 0 0 0 Z " fill="#1464CD" transform="translate(161,153)"/>
<path d="M0 0 C0.33 0 0.66 0 1 0 C1.33 2.64 1.66 5.28 2 8 C0.02 8 -1.96 8 -4 8 C-4 7.01 -4 6.02 -4 5 C-2.68 5 -1.36 5 0 5 C0 3.35 0 1.7 0 0 Z " fill="#031737" transform="translate(132,142)"/>
<path d="M0 0 C0.33 0.99 0.66 1.98 1 3 C-0.9375 6.1875 -0.9375 6.1875 -3 9 C-3.75 7.3125 -3.75 7.3125 -4 5 C-2.0625 2.25 -2.0625 2.25 0 0 Z " fill="#172D54" transform="translate(127,105)"/>
<path d="M0 0 C2.625 0.9375 2.625 0.9375 5 2 C4.01 2.495 4.01 2.495 3 3 C3 3.66 3 4.32 3 5 C1.0625 4.6875 1.0625 4.6875 -1 4 C-1.33 3.01 -1.66 2.02 -2 1 C-1.34 0.67 -0.68 0.34 0 0 Z " fill="#011332" transform="translate(176,87)"/>
<path d="M0 0 C1.32 0.33 2.64 0.66 4 1 C4 3.31 4 5.62 4 8 C2 6.25 2 6.25 0 4 C0 2.68 0 1.36 0 0 Z " fill="#061935" transform="translate(178,34)"/>
<path d="M0 0 C0.99 0 1.98 0 3 0 C2.67 1.32 2.34 2.64 2 4 C-0.64 3.67 -3.28 3.34 -6 3 C-6 2.67 -6 2.34 -6 2 C-4.02 1.67 -2.04 1.34 0 1 C0 0.67 0 0.34 0 0 Z " fill="#061933" transform="translate(189,145)"/>
<path d="M0 0 C1.485 0.99 1.485 0.99 3 2 C3.29296875 4.3828125 3.29296875 4.3828125 3.1875 7.125 C3.16042969 8.03507813 3.13335937 8.94515625 3.10546875 9.8828125 C3.07066406 10.58148438 3.03585938 11.28015625 3 12 C2.67 12 2.34 12 2 12 C1.87625 10.9275 1.7525 9.855 1.625 8.75 C1.10356064 5.62136385 0.59911746 3.66519576 -1 1 C-0.67 0.67 -0.34 0.34 0 0 Z " fill="#071C37" transform="translate(93,125)"/>
<path d="M0 0 C0.99 0 1.98 0 3 0 C1.87548273 2.9719385 0.77706209 5.33440687 -1 8 C-1.66 8 -2.32 8 -3 8 C-2.690625 7.236875 -2.38125 6.47375 -2.0625 5.6875 C-1.32106407 3.81210323 -0.63771783 1.91315348 0 0 Z " fill="#20365E" transform="translate(146,104)"/>
<path d="M0 0 C0.33 1.32 0.66 2.64 1 4 C-0.98 4.99 -0.98 4.99 -3 6 C-3.33 4.35 -3.66 2.7 -4 1 C-2 0 -2 0 0 0 Z " fill="#25395B" transform="translate(162,85)"/>
<path d="M0 0 C-3.1254959 2.64465038 -6.08788267 3.84414715 -10 5 C-7.22392109 0.83588163 -5.08838935 -1.69612978 0 0 Z " fill="#162D4B" transform="translate(164,83)"/>
<path d="M0 0 C1.65 0 3.3 0 5 0 C5 0.99 5 1.98 5 3 C3.35 3.33 1.7 3.66 0 4 C0 2.68 0 1.36 0 0 Z " fill="#1363CB" transform="translate(163,147)"/>
<path d="M0 0 C0 0.99 0 1.98 0 3 C-2.60582371 3.93065133 -3.64198224 4.14917407 -6.25 3.0625 C-6.8275 2.711875 -7.405 2.36125 -8 2 C-8 1.67 -8 1.34 -8 1 C-2.25 0 -2.25 0 0 0 Z " fill="#143E70" transform="translate(165,131)"/>
<path d="M0 0 C0.99 0.33 1.98 0.66 3 1 C4.1875 3.5625 4.1875 3.5625 5 6 C2.69 5.67 0.38 5.34 -2 5 C-1.01 4.34 -0.02 3.68 1 3 C0.67 2.01 0.34 1.02 0 0 Z " fill="#22436B" transform="translate(154,126)"/>
<path d="M0 0 C0.66 0.33 1.32 0.66 2 1 C1.3125 3.4375 1.3125 3.4375 0 6 C-2.625 6.8125 -2.625 6.8125 -5 7 C-3.70700306 4.11562221 -2.34058637 2.12780579 0 0 Z " fill="#2E4567" transform="translate(141,101)"/>
<path d="M0 0 C0.66 0 1.32 0 2 0 C2 2.31 2 4.62 2 7 C1.01 7 0.02 7 -1 7 C-0.67 4.69 -0.34 2.38 0 0 Z " fill="#041237" transform="translate(138,85)"/>
<path d="M0 0 C-3.06117568 2.62386487 -3.73173127 3 -8 3 C-7.67 2.01 -7.34 1.02 -7 0 C-4.3333581 -1.33332095 -2.83319697 -0.67102033 0 0 Z " fill="#0B1E3C" transform="translate(131,60)"/>
<path d="M0 0 C0.66 0.33 1.32 0.66 2 1 C2 1.66 2 2.32 2 3 C-0.31 3.33 -2.62 3.66 -5 4 C-3 1 -3 1 0 0 Z " fill="#071832" transform="translate(212,58)"/>
<path d="M0 0 C0.33 0.99 0.66 1.98 1 3 C-3.455 3.495 -3.455 3.495 -8 4 C-4.5 0 -4.5 0 0 0 Z " fill="#000920" transform="translate(240,39)"/>
</svg>
